<svg width="24" height="24" viewBox="0 0 24 24" fill="none" xmlns="http://www.w3.org/2000/svg">
<path d="M12.6 21.4838L12 22.1838L11.4 21.4838C10.3 20.0838 8.4 18.7838 2.2 18.7838C1.3 18.7838 0.699997 18.0838 0.699997 17.1838V3.78381C0.699997 3.58381 0.699997 3.38381 0.799997 3.18381C0.899997 2.98381 0.999997 2.88381 1.1 2.68381C1.2 2.58381 1.4 2.48381 1.6 2.38381C1.9 2.28381 2.1 2.28381 2.3 2.28381C7.5 2.28381 10.6 3.38381 12 5.58381C13.5 3.38381 16.6 2.28381 21.8 2.28381C22 2.28381 22.2 2.28381 22.4 2.38381C22.6 2.48381 22.7 2.58381 22.9 2.68381C23 2.78381 23.2 2.98381 23.2 3.18381C23.3 3.38381 23.3 3.58381 23.3 3.78381V17.2838C23.3 17.6838 23.1 18.0838 22.9 18.3838C22.6 18.6838 22.2 18.7838 21.8 18.7838C15.7 18.7838 13.8 20.0838 12.6 21.4838ZM12.8 7.58381V19.2838C14.7 17.8838 17.5 17.2838 21.8 17.2838V3.78381C14.8 3.78381 13.3 5.88381 12.8 7.58381ZM2.5 17.2838C6.7 17.2838 9.5 17.8838 11.3 19.2838V7.58381C10.8 5.78381 9.3 3.78381 2.3 3.78381V17.1838C2.3 17.2838 2.3 17.2838 2.3 17.2838C2.4 17.2838 2.4 17.2838 2.5 17.2838Z" fill="white"/>
</svg>
