<svg width="153" height="100" viewBox="0 0 153 100" fill="none" xmlns="http://www.w3.org/2000/svg">
<g opacity="0.3" filter="url(#filter0_f_124_4149)">
<circle cx="76" cy="57" r="22" fill="#1C92E0"/>
</g>
<path d="M97.932 63.8594L89.2542 31.456C89.0014 30.5118 88.0397 29.7571 86.8587 30.0733L85.6785 30.3896C85.2064 30.5164 84.7977 30.8785 84.4517 31.4774C83.3799 32.0075 80.4565 32.792 79.2572 32.8692C78.6583 32.5231 78.1228 32.4139 77.6508 32.5407L76.4698 32.8569C76.2849 32.9066 76.149 33.0059 76 33.0922V32.4444C76 31.0947 74.9053 30 73.5556 30H68.6667C67.3169 30 66.2222 31.0947 66.2222 32.4444V37.3333H76L83.7657 67.6551C84.0185 68.5993 84.9803 69.354 86.1613 69.0378L87.3415 68.7215C87.8135 68.5947 88.2222 68.2326 88.5683 67.6338C89.6308 67.1082 92.5542 66.3199 93.7627 66.2419C94.3616 66.588 94.8971 66.6972 95.3692 66.5704L96.5501 66.2542C97.7304 65.9379 98.1856 64.8035 97.932 63.8594ZM87.6654 63.3201L80.6322 37.056L85.3546 35.791L92.3877 62.0551L87.6654 63.3201ZM54 59.3333H63.7778V39.7778H54V59.3333ZM61.3333 30H56.4444C55.0947 30 54 31.0947 54 32.4444V37.3333H63.7778V32.4444C63.7778 31.0947 62.6831 30 61.3333 30ZM54 66.6667C54 68.0165 55.0947 69.1111 56.4444 69.1111H61.3333C62.6831 69.1111 63.7778 68.0165 63.7778 66.6667V61.7778H54V66.6667ZM66.2222 59.3333H76V39.7778H66.2222V59.3333ZM66.2222 66.6667C66.2222 68.0165 67.3169 69.1111 68.6667 69.1111H73.5556C74.9053 69.1111 76 68.0165 76 66.6667V61.7778H66.2222V66.6667Z" fill="#1C92E0"/>
<defs>
<filter id="filter0_f_124_4149" x="-1" y="-20" width="154" height="154" filterUnits="userSpaceOnUse" color-interpolation-filters="sRGB">
<feFlood flood-opacity="0" result="BackgroundImageFix"/>
<feBlend mode="normal" in="SourceGraphic" in2="BackgroundImageFix" result="shape"/>
<feGaussianBlur stdDeviation="27.5" result="effect1_foregroundBlur_124_4149"/>
</filter>
</defs>
</svg>
