<svg width="24" height="24" viewBox="0 0 24 24" fill="none" xmlns="http://www.w3.org/2000/svg">
<path fill-rule="evenodd" clip-rule="evenodd" d="M6.75 19.5C6.75 18.6716 7.42157 18 8.25 18C9.07843 18 9.75 18.6716 9.75 19.5C9.75 20.3284 9.07843 21 8.25 21C7.42157 21 6.75 20.3284 6.75 19.5ZM17.25 19.5C17.25 18.6716 17.9216 18 18.75 18C19.5784 18 20.25 18.6716 20.25 19.5C20.25 20.3284 19.5784 21 18.75 21C17.9216 21 17.25 20.3284 17.25 19.5Z" fill="#F7F9FA"/>
<path fill-rule="evenodd" clip-rule="evenodd" d="M2.25 3C1.83579 3 1.5 3.33579 1.5 3.75C1.5 4.16421 1.83579 4.5 2.25 4.5H4.62076L6.76141 16.6303C6.82466 16.9887 7.13607 17.25 7.5 17.25H19.5C19.9142 17.25 20.25 16.9142 20.25 16.5C20.25 16.0858 19.9142 15.75 19.5 15.75H8.12924L7.86453 14.25H19.192C19.4522 14.2502 19.7044 14.1602 19.9056 13.9953C20.1069 13.8304 20.2448 13.6008 20.2959 13.3457L21.6459 6.59568C21.6786 6.43242 21.6746 6.26395 21.6342 6.10243C21.5939 5.94085 21.5182 5.79026 21.4126 5.66152C21.307 5.53278 21.1741 5.42907 21.0235 5.3579C20.8731 5.28681 20.7088 5.24996 20.5425 5.25H6.27629L5.98859 3.61966C5.92534 3.26127 5.61393 3 5.25 3H2.25ZM7.59982 12.75H18.8853L20.0853 6.75H6.541L7.59982 12.75Z" fill="#F7F9FA"/>
</svg>
