<svg width="80" height="74" viewBox="0 0 80 74" fill="none" xmlns="http://www.w3.org/2000/svg">
<path d="M32.0499 40.33C31.9329 40.2123 31.7939 40.119 31.6407 40.0553C31.4875 39.9915 31.3233 39.9587 31.1574 39.9587C30.9915 39.9587 30.8273 39.9915 30.6741 40.0553C30.5209 40.119 30.3819 40.2123 30.2649 40.33L29.2599 41.33C29.1422 41.4474 29.0489 41.5869 28.9852 41.7405C28.9215 41.8941 28.8887 42.0587 28.8887 42.225C28.8887 42.3913 28.9215 42.5559 28.9852 42.7095C29.0489 42.863 29.1422 43.0025 29.2599 43.12L34.4499 48.31C34.6877 48.5466 35.0094 48.6794 35.3449 48.6794C35.6803 48.6794 36.0021 48.5466 36.2399 48.31L37.2399 47.305C37.3575 47.188 37.4509 47.049 37.5146 46.8958C37.5783 46.7426 37.6111 46.5784 37.6111 46.4125C37.6111 46.2466 37.5783 46.0823 37.5146 45.9292C37.4509 45.776 37.3575 45.6369 37.2399 45.52L32.0499 40.33Z" fill="#32ACFC"/>
<path d="M29.3197 44.595L26.4647 47.45C26.162 47.7552 25.9922 48.1676 25.9922 48.5975C25.9922 49.0273 26.162 49.4398 26.4647 49.745L27.7497 51.025C27.9 51.1754 28.0785 51.2947 28.275 51.3761C28.4714 51.4575 28.682 51.4994 28.8947 51.4994C29.1073 51.4994 29.3179 51.4575 29.5144 51.3761C29.7109 51.2947 29.8894 51.1754 30.0397 51.025L32.8947 48.17C32.4306 47.6993 29.3197 44.595 29.3197 44.595Z" fill="#32ACFC"/>
<path d="M50.8193 41.33L49.8143 40.33C49.6968 40.2123 49.5573 40.1189 49.4038 40.0552C49.2502 39.9915 49.0856 39.9587 48.9193 39.9587C48.753 39.9587 48.5884 39.9915 48.4348 40.0552C48.2812 40.1189 48.1417 40.2123 48.0243 40.33L42.8343 45.52C42.5989 45.7574 42.4668 46.0782 42.4668 46.4125C42.4668 46.7468 42.5989 47.0676 42.8343 47.305L43.8393 48.31C44.0775 48.5457 44.3991 48.6779 44.7343 48.6779C45.0694 48.6779 45.3911 48.5457 45.6293 48.31L50.8193 43.12C51.0548 42.8816 51.1868 42.56 51.1868 42.225C51.1868 41.8899 51.0548 41.5684 50.8193 41.33Z" fill="#32ACFC"/>
<path d="M31.8445 35.755L42.6995 44.24L43.4095 43.53C43.9342 43.0076 46.2747 40.663 46.7495 40.19L38.2645 29.34C38.0334 29.0461 37.7377 28.8093 37.4005 28.6481C37.0632 28.4868 36.6933 28.4053 36.3195 28.41L32.4095 28.455C32.0269 28.4599 31.6614 28.6143 31.3913 28.8854C31.1212 29.1564 30.968 29.5224 30.9645 29.905L30.9195 33.815C30.9117 34.1881 30.9913 34.5578 31.1519 34.8947C31.3125 35.2315 31.5497 35.5261 31.8445 35.755Z" fill="#32ACFC"/>
<path d="M34.2992 38.9449L33.3242 40.1849C33.7877 40.648 37.3792 44.2399 37.3792 44.2399L39.2242 42.7949C38.7138 42.394 34.2992 38.9449 34.2992 38.9449Z" fill="#32ACFC"/>
<path d="M45.9499 37.54L48.2349 35.755C48.5294 35.5248 48.7663 35.2292 48.9269 34.8916C49.0874 34.554 49.1672 34.1837 49.1599 33.81L49.1149 29.9C49.108 29.5172 48.9522 29.1521 48.6806 28.8823C48.4089 28.6125 48.0428 28.4592 47.6599 28.455L43.7549 28.41C43.3819 28.4028 43.0124 28.4827 42.6756 28.6433C42.3389 28.8038 42.0442 29.0407 41.8149 29.335L40.6699 30.795C40.9587 31.1457 45.9499 37.54 45.9499 37.54Z" fill="#32ACFC"/>
<path d="M53.5345 47.53L50.6795 44.67C50.2113 45.1387 47.1045 48.25 47.1045 48.25L49.9595 51.105C50.1097 51.2556 50.2882 51.3751 50.4847 51.4566C50.6812 51.5381 50.8918 51.58 51.1045 51.58C51.3172 51.58 51.5278 51.5381 51.7243 51.4566C51.9208 51.3751 52.0992 51.2556 52.2495 51.105L53.5345 49.82C53.8365 49.5155 54.0059 49.1039 54.0059 48.675C54.0059 48.2461 53.8365 47.8346 53.5345 47.53Z" fill="#32ACFC"/>
<g opacity="0.3" filter="url(#filter0_f_832_32350)">
<circle cx="40" cy="40" r="16" fill="#32ACFC"/>
</g>
<defs>
<filter id="filter0_f_832_32350" x="0" y="0" width="80" height="80" filterUnits="userSpaceOnUse" color-interpolation-filters="sRGB">
<feFlood flood-opacity="0" result="BackgroundImageFix"/>
<feBlend mode="normal" in="SourceGraphic" in2="BackgroundImageFix" result="shape"/>
<feGaussianBlur stdDeviation="12" result="effect1_foregroundBlur_832_32350"/>
</filter>
</defs>
</svg>
