<svg width="104" height="40" viewBox="0 0 104 40" fill="none" xmlns="http://www.w3.org/2000/svg">
<path d="M12.2187 16.5327L12.1959 17.5624C12.9052 17.6768 13.6832 18.1802 13.6832 20.6514V27.3099C13.6832 29.9413 11.8298 31.0167 9.88482 31.0167C7.82548 31.0167 6.06361 29.9413 6.06361 27.3099V19.2327C6.06361 17.9743 6.84158 17.631 7.5509 17.5624L7.45938 16.5327H0.0915261L0 17.5624C0.709327 17.631 1.4873 17.9743 1.4873 19.2327V26.4862C1.4873 30.3989 3.54664 32.9617 8.71786 32.9617C13.6832 32.9617 15.9484 30.3989 15.9484 26.4862V20.4226C15.9484 18.2488 16.7264 17.6768 17.4357 17.5624V16.5327H12.2187Z" fill="white"/>
<path d="M28.8709 28.1108C28.482 30.582 26.1938 30.9252 23.3565 30.9252H22.9904L29.8091 20.926V19.5073H18.6429L18.3454 23.5345H19.581C19.8785 21.4294 21.915 21.1548 23.6997 21.1319H24.8896L18.231 30.8794V32.5498H29.5803L30.1066 28.1108H28.8709Z" fill="white"/>
<path d="M37.7059 24.5644C37.7059 21.155 39.5365 17.6999 42.5568 17.6999C43.8382 17.6999 44.5704 18.5923 44.5704 20.1253C44.5704 21.3381 45.4857 21.9559 46.4238 21.9559C47.3848 21.9559 48.3459 21.3152 48.3459 20.0338C48.3459 18.9813 47.7738 18.2262 46.9043 17.5397C45.6001 16.5101 43.6094 16.1211 41.3899 16.1211C36.5848 16.1211 32.7178 19.8965 32.7178 24.6101C32.7178 29.3008 36.5848 32.9619 41.3899 32.9619C44.3645 32.9619 47.2475 31.8178 48.9865 29.5754L47.8882 28.4542C46.7442 29.7127 44.8679 30.3534 42.717 30.2161C40.4975 30.0559 37.7059 28.2712 37.7059 24.5644Z" fill="#767779"/>
<path d="M57.681 31.5203V32.55H65.1404L65.0717 31.5203C64.3624 31.4059 63.5844 30.9025 63.5844 28.4313V23.9694C63.5844 20.2397 61.3192 19.0957 59.3285 19.0957C57.9098 19.0957 56.3539 19.7592 55.8047 20.9033V14.9312C54.775 14.4278 51.114 14.5194 49.7869 16.2584C50.4733 16.6702 51.3886 16.9448 51.3886 19.3702V28.4313C51.3886 30.9025 50.6106 31.4059 49.9013 31.5203L49.8326 32.55H57.292V31.5203C56.5827 31.4059 55.8047 30.9025 55.8047 28.4313V25.3881C55.8047 22.894 56.4683 21.0635 57.7267 21.0635C58.1844 21.0635 59.1683 21.5211 59.1683 23.9465V28.4313C59.1683 30.9025 58.3903 31.4059 57.681 31.5203Z" fill="#767779"/>
<path d="M78.032 29.2551C77.0938 30.3076 75.5379 30.8339 74.3252 30.7424C72.3573 30.6051 70.4811 29.0034 70.4124 26.8525C72.5404 27.2415 74.3023 27.0356 75.6294 26.6237C77.5286 26.0288 78.604 25.0449 78.8099 23.5576C79.1532 21.0406 76.6133 19.0499 72.6548 19.0499C68.6963 19.0499 65.4929 22.1847 65.4929 26.0745C65.4929 29.9644 68.6963 33.0992 72.6548 33.0992C75.126 33.0992 77.5057 32.0466 78.9472 30.1932L78.032 29.2551ZM73.7302 20.8804C74.8972 20.766 76.0413 21.7957 75.6294 23.2143C75.2404 24.5415 73.8675 25.8915 70.5497 25.2737C70.8472 23.0771 71.7167 21.0635 73.7302 20.8804Z" fill="#767779"/>
<path d="M85.003 31.2458C83.8818 31.2458 82.7377 30.7652 82.7377 29.8729C82.7377 29.3924 83.4699 29.1178 83.4699 28.5C83.4699 27.7678 82.7377 27.1271 81.708 27.1271C80.175 27.1271 79.5114 28.3856 79.5114 29.1864C79.5114 31.4517 82.0741 32.8017 85.3462 32.8017C89.4878 32.8017 91.2725 30.4678 91.2725 28.5457C91.2725 27.3788 90.6776 26.3949 89.4191 25.5483C86.6047 23.6033 83.9733 22.8025 83.9733 21.7728C83.9733 21.0177 84.8428 20.6058 85.8038 20.6058C86.8106 20.6058 87.7945 20.9948 87.6801 21.8414C87.3598 24.2669 91.181 24.1982 90.7462 21.6584C90.4945 20.2855 88.6411 19.2787 86.1242 19.2787C83.4013 19.2787 80.7699 20.194 80.1978 22.2762C79.786 23.6262 80.7241 24.8618 82.2572 25.8457C84.4081 27.1957 87.2454 28.294 87.2454 29.3924C87.2454 30.4678 86.4216 31.2458 85.003 31.2458Z" fill="#767779"/>
<path d="M97.3402 31.2458C96.219 31.2458 95.075 30.7652 95.075 29.8729C95.075 29.3924 95.8072 29.1178 95.8072 28.5C95.8072 27.7678 95.075 27.1271 94.0453 27.1271C92.5122 27.1271 91.8487 28.3856 91.8487 29.1864C91.8487 31.4517 94.4114 32.8017 97.6835 32.8017C101.825 32.8017 103.61 30.4678 103.61 28.5457C103.61 27.3788 103.015 26.3949 101.756 25.5483C98.9419 23.6033 96.3106 22.8025 96.3106 21.7728C96.3106 21.0177 97.1801 20.6058 98.1411 20.6058C99.1479 20.6058 100.132 20.9948 100.017 21.8414C99.697 24.2669 103.518 24.1982 103.083 21.6584C102.832 20.2855 100.978 19.2787 98.4614 19.2787C95.7385 19.2787 93.1071 20.194 92.5351 22.2762C92.1232 23.6262 93.0614 24.8618 94.5944 25.8457C96.7453 27.1957 99.5826 28.294 99.5826 29.3924C99.5826 30.4678 98.7589 31.2458 97.3402 31.2458Z" fill="#767779"/>
<g filter="url(#filter0_i_27850_30356)">
<path d="M28.7768 32.6031C28.1616 32.6031 27.7241 31.9944 27.9106 31.398L29.0851 27.6427C29.4573 26.453 30.1521 25.3943 31.0898 24.5888C31.1327 24.5362 31.1726 24.4795 31.2102 24.4194C31.3043 24.2699 31.3179 23.9572 31.2235 23.7941C30.9406 23.3183 30.6175 22.8561 30.2675 22.4075C30.1027 22.208 29.9284 22.0183 29.7523 21.8288C29.5683 21.6309 29.3825 21.4332 29.2034 21.2248C28.8534 20.817 28.8939 20.6675 29.217 20.246C29.3922 20.0149 29.5132 19.6751 29.5132 19.3896C29.5268 18.4244 29.1632 17.5272 28.7862 16.6572C28.6111 16.2494 29.0286 15.5697 29.473 15.5697H30.806L30.8208 15.5425C30.8344 15.5185 30.8504 15.4897 30.8598 15.4609C29.9171 14.7404 29.3653 13.816 29.4863 12.5926C29.5538 11.94 29.7423 11.3283 30.1192 10.7166C30.6983 11.2331 31.2371 11.7225 31.7756 12.2119C31.9008 12.3305 31.9943 12.3709 32.0848 12.3413C32.1502 12.3199 32.2142 12.2622 32.2872 12.1712C32.4491 11.9808 32.4222 11.8857 32.247 11.7361C31.8508 11.3875 31.47 11.0311 31.0815 10.6787C30.9548 10.5639 30.8273 10.4495 30.6983 10.3359C30.4962 10.1592 30.4829 10.0233 30.658 9.83296C30.9676 9.47953 31.2504 9.09889 31.5735 8.74542C31.7082 8.59589 31.7756 8.48715 31.6949 8.26963C31.5333 7.84824 31.6679 7.4676 32.0449 7.19571C32.4355 6.92382 33.0145 6.9374 33.4051 7.22288C33.7418 7.48119 33.8629 7.86182 33.7013 8.28325C33.6205 8.48715 33.688 8.58231 33.8226 8.71826C34.6171 9.57469 35.3172 10.4855 35.7078 11.6138C36.206 13.0412 35.8693 14.2782 34.7381 15.2842C34.7065 15.3098 34.6778 15.3383 34.6523 15.3769C34.6233 15.4205 34.5982 15.4768 34.5766 15.5561H35.6539C36.1389 15.5561 36.5022 15.7872 36.6774 16.2494C36.7179 16.3445 36.6641 16.4805 36.6236 16.5892C36.3812 17.3505 36.0983 18.1118 35.9099 18.8866C35.7752 19.444 35.8155 20.0013 36.3407 20.4228C36.6099 20.6403 36.4081 20.9393 36.2466 21.1432C36.1016 21.326 35.9451 21.493 35.7894 21.659C35.6557 21.8019 35.5225 21.944 35.398 22.0948C35.3187 22.1916 35.2382 22.2878 35.1574 22.3842C34.8417 22.7614 34.5245 23.1406 34.2671 23.563C34.0135 23.961 34.0348 24.3259 34.2898 24.5888C35.2209 25.3946 35.9111 26.45 36.2817 27.635L37.4586 31.398C37.6451 31.9944 37.2076 32.6031 36.5924 32.6031H28.7768Z" fill="#1C92E0"/>
</g>
<path fill-rule="evenodd" clip-rule="evenodd" d="M36.2786 21.1969C36.1332 21.3801 35.9764 21.5475 35.8204 21.7139L35.8178 21.7167C35.6842 21.8594 35.5512 22.0014 35.4267 22.1521C35.3471 22.2493 35.2663 22.3459 35.1852 22.4426C34.8683 22.8213 34.5499 23.2019 34.2915 23.6259C34.037 24.0254 34.0583 24.3917 34.3144 24.6556C35.249 25.4644 35.9418 26.5239 36.3138 27.7134L37.4952 31.4907C37.6824 32.0893 37.2433 32.7003 36.6257 32.7003H28.7804C28.1628 32.7003 27.7236 32.0893 27.9109 31.4907L29.0899 27.7211C29.4634 26.5268 30.1609 25.4642 31.1021 24.6556C31.1452 24.6028 31.1853 24.5458 31.223 24.4856C31.3175 24.3355 31.3311 24.0216 31.2364 23.8579C30.9524 23.3803 30.6281 22.9163 30.2767 22.466C30.1113 22.2658 29.9363 22.0753 29.7596 21.8851C29.7402 21.8643 29.7209 21.8435 29.7015 21.8227C29.5359 21.6448 29.3695 21.4661 29.2086 21.2788C28.8572 20.8694 28.8979 20.7193 29.2223 20.2963C29.3981 20.0643 29.5196 19.7232 29.5196 19.4366C29.5333 18.4678 29.1682 17.5672 28.7898 16.6938C28.6328 16.3282 28.9503 15.7449 29.3378 15.6244C29.3842 15.61 29.4315 15.6022 29.4792 15.6022H30.8173L30.8321 15.5749C30.8458 15.5508 30.8618 15.5219 30.8713 15.493C30.8532 15.4791 30.8351 15.4651 30.8173 15.4511C30.4393 15.1544 30.1269 14.8236 29.899 14.4524C29.5761 13.9267 29.4227 13.3198 29.4926 12.6137C29.52 12.3486 29.5673 12.0903 29.639 11.8359C29.7031 11.6082 29.7868 11.3838 29.8932 11.1606C29.9617 11.0169 30.0397 10.8738 30.1279 10.7306C30.1738 10.7716 30.2195 10.8124 30.265 10.8531C30.2656 10.8536 30.2661 10.8541 30.2667 10.8546C30.3933 10.9678 30.5181 11.0799 30.6416 11.191C30.6415 11.191 30.6417 11.1911 30.6416 11.191C30.7628 11.3001 30.8828 11.4084 31.0017 11.516C31.0963 11.6015 31.1904 11.6867 31.284 11.7717C31.3005 11.6957 31.3239 11.6317 31.3467 11.5823C31.3704 11.5308 31.3934 11.4945 31.4067 11.475C31.4074 11.474 31.4081 11.473 31.4087 11.472C31.4108 11.4691 31.4127 11.4664 31.4144 11.464C31.4187 11.4596 31.4241 11.4542 31.4307 11.4479C31.4369 11.4422 31.4441 11.4357 31.4522 11.4287C31.493 11.3938 31.5855 11.3231 31.7293 11.2735C31.6472 11.1986 31.5653 11.1235 31.4834 11.0484C31.3538 10.9297 31.2242 10.8109 31.0938 10.6926C30.9667 10.5773 30.8387 10.4625 30.7092 10.3485C30.6556 10.3017 30.6152 10.2577 30.5881 10.2148C30.5124 10.0952 30.5394 9.98421 30.6688 9.84363C30.6968 9.81159 30.7247 9.77933 30.7523 9.74688C30.8592 9.62164 30.9635 9.49367 31.0681 9.3653C31.2365 9.15869 31.4058 8.95103 31.5877 8.75196C31.7229 8.60186 31.7906 8.4927 31.7095 8.27435C31.5473 7.85136 31.6825 7.46928 32.0609 7.19635C32.453 6.92342 33.0342 6.93706 33.4263 7.22362C33.7643 7.48291 33.8858 7.865 33.7236 8.28802C33.6425 8.4927 33.7102 8.58822 33.8454 8.72469C34.6429 9.58438 35.3456 10.4986 35.7377 11.6312C36.1015 12.6734 36.0219 13.6145 35.5145 14.4387C35.3243 14.7477 35.0739 15.0403 34.7644 15.3156C34.7326 15.3413 34.7038 15.3699 34.6782 15.4087C34.6491 15.4524 34.6239 15.509 34.6022 15.5885H35.6836C35.817 15.5885 35.9411 15.6059 36.0548 15.6407C36.3561 15.733 36.5833 15.9476 36.711 16.2845C36.7502 16.3763 36.7016 16.5061 36.6617 16.613C36.6601 16.6172 36.6585 16.6214 36.657 16.6256C36.5862 16.8477 36.5121 17.0698 36.4378 17.2923C36.2566 17.8352 36.0748 18.38 35.9405 18.9317C35.8054 19.4912 35.8458 20.0507 36.373 20.4737C36.6433 20.6921 36.4407 20.9923 36.2786 21.1969ZM37.058 19.2025C37.0148 19.3817 37.0232 19.4707 37.0301 19.5015C37.0327 19.513 37.0351 19.5174 37.0376 19.5214C37.0403 19.5256 37.0532 19.5454 37.0926 19.577L37.0955 19.5793C37.3265 19.7659 37.5189 20.0259 37.6063 20.3548C37.6903 20.6712 37.6518 20.9554 37.5921 21.1609C37.487 21.5233 37.2648 21.8036 37.1828 21.9071L37.1792 21.9116C37.0042 22.1321 36.8198 22.3289 36.6706 22.4881L36.6589 22.5006C36.6588 22.5007 36.659 22.5004 36.6589 22.5006C36.5211 22.6477 36.4125 22.7642 36.3145 22.8828C36.231 22.9846 36.1473 23.0847 36.0666 23.1808C35.7917 23.5094 35.5627 23.7855 35.374 24.0669C36.3164 24.9754 37.0175 26.1116 37.4111 27.3702L38.5925 31.1474C39.0031 32.4602 38.0464 33.8501 36.6257 33.8501H28.7804C27.3597 33.8501 26.403 32.4602 26.8136 31.1474L27.9925 27.3779C28.385 26.1229 29.0839 24.9899 30.023 24.0839C29.8268 23.7824 29.6115 23.4832 29.3803 23.1862C29.241 23.0185 29.0896 22.8531 28.9176 22.6681M35.2454 24.2715C35.2454 24.2715 35.2456 24.2711 35.246 24.2702L35.2454 24.2715ZM37.058 19.2025C37.1803 18.6999 37.3385 18.2262 37.5124 17.7053C37.587 17.4822 37.6644 17.2504 37.7431 17.0039C37.763 16.9511 37.8073 16.8303 37.8359 16.7038C37.8658 16.5715 37.9291 16.2355 37.7807 15.8629C37.6187 15.443 37.3463 15.0689 36.9516 14.8058C36.8702 14.7515 36.7867 14.704 36.7016 14.6628C36.8154 14.4285 36.9074 14.1835 36.9755 13.9278C37.2082 13.0534 37.1356 12.148 36.8237 11.2537C36.3989 10.0273 35.6798 9.04801 34.9255 8.20319C34.9625 7.93202 34.9472 7.65182 34.8669 7.37467C34.7371 6.92615 34.4614 6.56858 34.1261 6.31137L34.1155 6.30325L34.1047 6.29538C33.331 5.72983 32.2134 5.68926 31.404 6.25272L31.3961 6.25822L31.3883 6.26384C31.046 6.51074 30.7438 6.85906 30.5917 7.31561C30.4898 7.62137 30.47 7.93193 30.515 8.23055C30.4148 8.348 30.3204 8.46301 30.2324 8.57078C30.2134 8.59403 30.1948 8.61687 30.1765 8.63935C30.0764 8.76212 29.9851 8.87407 29.8941 8.98128L29.8691 8.95894L29.7588 9.13789C29.6771 9.23587 29.5778 9.37508 29.5039 9.55164L29.1491 10.1274C28.6729 10.9002 28.433 11.6824 28.3489 12.4955L28.3484 12.5006C28.2681 13.3121 28.4075 14.0262 28.7002 14.6486C28.333 14.8444 28.0736 15.1493 27.9262 15.3852C27.6871 15.7678 27.4357 16.4544 27.7334 17.1476L27.7348 17.1509C28.1204 18.0407 28.3797 18.7296 28.37 19.4204L28.3698 19.4285V19.4333C28.3697 19.4352 28.3691 19.4403 28.3675 19.4487C28.3647 19.4642 28.3594 19.4848 28.3512 19.5083C28.3431 19.5317 28.3335 19.5535 28.324 19.5717C28.3154 19.5882 28.3089 19.5978 28.3066 19.6009C28.3017 19.6073 28.2965 19.6141 28.2909 19.6213C28.1558 19.796 27.8392 20.2056 27.8136 20.7376C27.7833 21.3695 28.156 21.8178 28.3361 22.0276C28.513 22.2334 28.6959 22.4299 28.8597 22.6058C28.8792 22.6267 28.8987 22.6477 28.9176 22.6681M32.2638 11.7541C32.4396 11.9042 32.4666 11.9997 32.3041 12.1907C32.2308 12.2821 32.1666 12.3401 32.101 12.3615C32.0192 12.3883 31.935 12.3581 31.8275 12.2651C31.825 12.2629 31.8224 12.2607 31.8199 12.2585C31.8103 12.25 31.8006 12.2411 31.7906 12.2317" fill="#171C1E"/>
<g filter="url(#filter1_di_27850_30356)">
<path d="M28.7803 32.7004C28.1627 32.7004 27.7236 32.0894 27.9108 31.4908L29.0898 27.7212C29.4633 26.527 30.1608 25.4643 31.102 24.6557C31.1451 24.6029 31.1852 24.5459 31.2229 24.4857C31.3174 24.3356 31.331 24.0217 31.2363 23.858C30.9523 23.3804 30.628 22.9164 30.2766 22.4661C30.1112 22.2659 29.9362 22.0754 29.7595 21.8852C29.5747 21.6865 29.3882 21.4881 29.2085 21.2789C28.8571 20.8695 28.8978 20.7194 29.2222 20.2964C29.398 20.0644 29.5195 19.7233 29.5195 19.4367C29.5332 18.4679 29.1681 17.5673 28.7897 16.6939C28.6139 16.2846 29.033 15.6023 29.4791 15.6023H30.8172L30.832 15.575C30.8457 15.5509 30.8617 15.522 30.8712 15.4931C29.9249 14.7699 29.371 13.842 29.4925 12.6139C29.5602 11.9588 29.7494 11.3448 30.1278 10.7307C30.7091 11.2492 31.2499 11.7405 31.7905 12.2318C31.9161 12.3507 32.01 12.3913 32.1009 12.3616C32.1665 12.3402 32.2307 12.2822 32.304 12.1908C32.4665 11.9998 32.4395 11.9043 32.2637 11.7542C31.8659 11.4042 31.4837 11.0465 31.0937 10.6927C30.9666 10.5774 30.8386 10.4626 30.7091 10.3486C30.5062 10.1712 30.4928 10.0348 30.6687 9.84374C30.9793 9.48896 31.2633 9.10688 31.5876 8.75206C31.7228 8.60196 31.7905 8.49281 31.7094 8.27446C31.5472 7.85147 31.6824 7.46938 32.0608 7.19645C32.4529 6.92353 33.0341 6.93716 33.4262 7.22372C33.7642 7.48302 33.8857 7.8651 33.7235 8.28813C33.6424 8.49281 33.7101 8.58833 33.8453 8.72479C34.6428 9.58448 35.3455 10.4988 35.7376 11.6313C36.2378 13.0641 35.8998 14.3059 34.7643 15.3157C34.7325 15.3414 34.7037 15.37 34.6781 15.4088C34.649 15.4525 34.6238 15.5091 34.6021 15.5886H35.6835C36.1703 15.5886 36.5351 15.8206 36.7109 16.2846C36.7516 16.3801 36.6976 16.5165 36.6569 16.6257C36.4136 17.3899 36.1297 18.154 35.9404 18.9318C35.8053 19.4913 35.8457 20.0508 36.3729 20.4738C36.6432 20.6922 36.4406 20.9924 36.2785 21.197C36.1329 21.3805 35.9758 21.5481 35.8196 21.7148C35.6853 21.8582 35.5517 22.0008 35.4266 22.1523C35.347 22.2494 35.2662 22.346 35.1851 22.4427C34.8682 22.8214 34.5498 23.202 34.2914 23.626C34.0369 24.0255 34.0582 24.3918 34.3143 24.6557C35.2489 25.4645 35.9417 26.524 36.3137 27.7135L37.4951 31.4908C37.6823 32.0894 37.2432 32.7004 36.6256 32.7004H28.7803Z" fill="#1C92E0"/>
</g>
<defs>
<filter id="filter0_i_27850_30356" x="27.8672" y="7" width="9.63477" height="25.603" filterUnits="userSpaceOnUse" color-interpolation-filters="sRGB">
<feFlood flood-opacity="0" result="BackgroundImageFix"/>
<feBlend mode="normal" in="SourceGraphic" in2="BackgroundImageFix" result="shape"/>
<feColorMatrix in="SourceAlpha" type="matrix" values="0 0 0 0 0 0 0 0 0 0 0 0 0 0 0 0 0 0 127 0" result="hardAlpha"/>
<feOffset dx="-1.5"/>
<feComposite in2="hardAlpha" operator="arithmetic" k2="-1" k3="1"/>
<feColorMatrix type="matrix" values="0 0 0 0 0 0 0 0 0 0 0 0 0 0 0 0 0 0 0.18 0"/>
<feBlend mode="normal" in2="shape" result="effect1_innerShadow_27850_30356"/>
</filter>
<filter id="filter1_di_27850_30356" x="22.8672" y="0" width="23.6719" height="39.7007" filterUnits="userSpaceOnUse" color-interpolation-filters="sRGB">
<feFlood flood-opacity="0" result="BackgroundImageFix"/>
<feColorMatrix in="SourceAlpha" type="matrix" values="0 0 0 0 0 0 0 0 0 0 0 0 0 0 0 0 0 0 127 0" result="hardAlpha"/>
<feOffset dx="2"/>
<feGaussianBlur stdDeviation="3.5"/>
<feComposite in2="hardAlpha" operator="out"/>
<feColorMatrix type="matrix" values="0 0 0 0 0.0431373 0 0 0 0 0.0784314 0 0 0 0 0.0941176 0 0 0 0.5 0"/>
<feBlend mode="normal" in2="BackgroundImageFix" result="effect1_dropShadow_27850_30356"/>
<feBlend mode="normal" in="SourceGraphic" in2="effect1_dropShadow_27850_30356" result="shape"/>
<feColorMatrix in="SourceAlpha" type="matrix" values="0 0 0 0 0 0 0 0 0 0 0 0 0 0 0 0 0 0 127 0" result="hardAlpha"/>
<feOffset dx="-1.5"/>
<feComposite in2="hardAlpha" operator="arithmetic" k2="-1" k3="1"/>
<feColorMatrix type="matrix" values="0 0 0 0 0 0 0 0 0 0 0 0 0 0 0 0 0 0 0.18 0"/>
<feBlend mode="normal" in2="shape" result="effect2_innerShadow_27850_30356"/>
</filter>
</defs>
</svg>
