<svg width="76" height="24" viewBox="0 0 76 24" fill="none" xmlns="http://www.w3.org/2000/svg">
<g clip-path="url(#clip0_27871_5836)">
<path d="M36.8793 6.03841V8.60801H35.1726V6.01272L32.3281 1.33606H34.1383L36.1036 4.57375L38.0689 1.33606H39.7238L36.8793 6.03841Z" fill="white"/>
<path d="M40.6805 8.32535C40.215 8.06839 39.853 7.73434 39.5686 7.29751C39.31 6.86068 39.1807 6.37245 39.1807 5.80714C39.1807 5.24183 39.31 4.75361 39.5686 4.31678C39.8271 3.87995 40.1892 3.5459 40.6805 3.28894C41.146 3.03198 41.689 2.9292 42.2838 2.9292C42.8785 2.9292 43.3957 3.05768 43.8612 3.28894C44.3266 3.5459 44.6887 3.87995 44.9473 4.31678C45.2058 4.75361 45.3351 5.24183 45.3351 5.80714C45.3351 6.37245 45.2058 6.86068 44.9473 7.29751C44.6887 7.73434 44.3266 8.06839 43.8612 8.32535C43.3957 8.5823 42.8527 8.68509 42.2838 8.68509C41.7149 8.68509 41.146 8.55661 40.6805 8.32535ZM43.3181 6.93776C43.5767 6.65511 43.7319 6.26967 43.7319 5.80714C43.7319 5.34462 43.6026 4.95918 43.3181 4.67652C43.0595 4.39387 42.6975 4.26539 42.2838 4.26539C41.87 4.26539 41.508 4.39387 41.2494 4.67652C40.9649 4.95918 40.8356 5.34462 40.8356 5.80714C40.8356 6.26967 40.9649 6.65511 41.2494 6.93776C41.5338 7.22042 41.87 7.3489 42.2838 7.3489C42.6975 7.3489 43.0337 7.22042 43.3181 6.93776Z" fill="white"/>
<path d="M46.861 8.53091C46.4214 8.42813 46.0594 8.27395 45.8008 8.09408L46.3438 6.93776C46.6024 7.09194 46.8869 7.22042 47.2489 7.3232C47.6109 7.42599 47.9471 7.47738 48.2833 7.47738C48.9815 7.47738 49.3176 7.29751 49.3176 6.96346C49.3176 6.80928 49.2142 6.6808 49.0332 6.62941C48.8522 6.55233 48.5677 6.50093 48.154 6.44954C47.6885 6.37245 47.3265 6.29537 47.0162 6.21828C46.7059 6.14119 46.4473 5.96132 46.2404 5.73006C46.0335 5.49879 45.9042 5.16475 45.9042 4.75361C45.9042 4.39387 46.0077 4.08552 46.2145 3.80286C46.4214 3.52021 46.7317 3.31464 47.1196 3.16046C47.5075 3.00629 47.9729 2.9292 48.516 2.9292C48.9039 2.9292 49.3176 2.98059 49.7055 3.05768C50.0934 3.13477 50.4296 3.26325 50.6882 3.41742L50.1451 4.57374C49.6538 4.29108 49.1108 4.1626 48.516 4.1626C48.1798 4.1626 47.8954 4.214 47.7402 4.31678C47.5851 4.41956 47.4816 4.54804 47.4816 4.70222C47.4816 4.88209 47.5851 4.98487 47.7661 5.06196C47.9471 5.13905 48.2574 5.19044 48.6711 5.26753C49.1366 5.34462 49.4986 5.4217 49.8089 5.52449C50.1193 5.62727 50.352 5.78145 50.5847 5.98701C50.7916 6.21828 50.9209 6.52663 50.9209 6.93776C50.9209 7.27181 50.8175 7.58016 50.6106 7.86282C50.4037 8.14547 50.0934 8.35104 49.7055 8.47952C49.2918 8.6337 48.8263 8.71078 48.2833 8.71078C47.7661 8.68509 47.3006 8.6337 46.861 8.53091Z" fill="white"/>
<path d="M56.8941 3.54585C57.3337 3.95699 57.5405 4.57369 57.5405 5.39596V8.60795H55.9114V5.65292C55.9114 5.21609 55.808 4.88204 55.627 4.65078C55.4201 4.44521 55.1615 4.31673 54.7736 4.31673C54.3599 4.31673 54.0237 4.44521 53.791 4.70217C53.5582 4.95913 53.4289 5.31887 53.4289 5.83279V8.60795H51.7998V0.89917H53.4289V3.59724C53.6358 3.39168 53.8944 3.2118 54.2047 3.10902C54.515 3.00624 54.8512 2.92915 55.2132 2.92915C55.9114 2.92915 56.4803 3.13472 56.8941 3.54585Z" fill="white"/>
<path d="M58.9111 0.89917H60.5403V8.60795H58.9111V0.89917Z" fill="white"/>
<path d="M66.2294 3.54579C66.6948 3.95692 66.9276 4.57363 66.9276 5.42159V8.60789H65.4019V7.9141C65.0916 8.42802 64.5227 8.68498 63.6952 8.68498C63.2556 8.68498 62.8935 8.60789 62.5832 8.47941C62.2729 8.32523 62.0143 8.14536 61.8592 7.8884C61.704 7.63144 61.6006 7.34879 61.6006 7.01474C61.6006 6.50082 61.8075 6.08969 62.1953 5.78133C62.5832 5.47298 63.2039 5.3445 64.0313 5.3445H65.3243C65.3243 4.98476 65.2209 4.7278 64.9881 4.52223C64.7813 4.34236 64.4451 4.23958 64.0055 4.23958C63.6952 4.23958 63.4107 4.29097 63.1263 4.36806C62.8418 4.47084 62.5832 4.59932 62.3764 4.7535L61.7816 3.62288C62.0919 3.41731 62.4539 3.23744 62.8935 3.13465C63.3331 3.00617 63.7728 2.95478 64.2124 2.95478C65.0916 2.92909 65.7639 3.13465 66.2294 3.54579ZM64.833 7.40018C65.0399 7.2717 65.195 7.09183 65.2984 6.83487V6.26956H64.1865C63.5142 6.26956 63.178 6.47513 63.178 6.91196C63.178 7.11752 63.2556 7.2717 63.4366 7.40018C63.5917 7.52866 63.8245 7.58005 64.1089 7.58005C64.3675 7.60575 64.6261 7.52866 64.833 7.40018Z" fill="white"/>
<path d="M70.6515 3.13477C70.9877 3.00629 71.3756 2.9292 71.7893 2.9292V4.41956C71.6083 4.39387 71.479 4.39387 71.4273 4.39387C70.9619 4.39387 70.5998 4.52235 70.3412 4.77931C70.0826 5.03627 69.9533 5.4217 69.9533 5.93562V8.5823H68.3242V3.00629H69.8758V3.75147C70.0568 3.49451 70.3154 3.28894 70.6515 3.13477Z" fill="white"/>
<path d="M38.0169 15.7515C38.4565 15.9827 38.7926 16.3168 39.0254 16.7536C39.2581 17.1904 39.3874 17.6787 39.3874 18.2697C39.3874 18.835 39.2581 19.3489 39.0254 19.7857C38.7926 20.2226 38.4565 20.5566 38.0169 20.7879C37.5773 21.0191 37.1118 21.1476 36.5946 21.1476C35.8706 21.1476 35.3017 20.9164 34.8879 20.4795V23.0748H33.2588V15.4945H34.8103V16.1369C35.2241 15.6487 35.793 15.4174 36.5688 15.4174C37.1118 15.3917 37.5773 15.5202 38.0169 15.7515ZM37.3445 19.4003C37.6031 19.1176 37.7583 18.7322 37.7583 18.2697C37.7583 17.8071 37.629 17.4217 37.3445 17.1391C37.0859 16.8564 36.7239 16.7279 36.3102 16.7279C35.8964 16.7279 35.5603 16.8564 35.2758 17.1391C35.0172 17.4217 34.8621 17.8071 34.8621 18.2697C34.8621 18.7322 34.9914 19.1176 35.2758 19.4003C35.5344 19.683 35.8964 19.8114 36.3102 19.8114C36.7239 19.8114 37.0601 19.683 37.3445 19.4003Z" fill="white"/>
<path d="M41.4569 20.7879C40.9914 20.5309 40.6294 20.1969 40.3449 19.76C40.0863 19.3232 39.957 18.835 39.957 18.2697C39.957 17.7044 40.0863 17.2161 40.3449 16.7793C40.6035 16.3425 40.9655 16.0084 41.4569 15.7515C41.9223 15.4945 42.4654 15.3917 43.0601 15.3917C43.6549 15.3917 44.1721 15.5202 44.6375 15.7515C45.103 16.0084 45.465 16.3425 45.7236 16.7793C45.9822 17.2161 46.1115 17.7044 46.1115 18.2697C46.1115 18.835 45.9822 19.3232 45.7236 19.76C45.465 20.1969 45.103 20.5309 44.6375 20.7879C44.1721 21.0448 43.629 21.1476 43.0601 21.1476C42.4912 21.1476 41.9223 21.0448 41.4569 20.7879ZM44.0686 19.4003C44.3272 19.1176 44.4824 18.7322 44.4824 18.2697C44.4824 17.8071 44.3531 17.4217 44.0686 17.139C43.81 16.8564 43.448 16.7279 43.0343 16.7279C42.6205 16.7279 42.2585 16.8564 41.9999 17.139C41.7155 17.4217 41.5862 17.8071 41.5862 18.2697C41.5862 18.7322 41.7155 19.1176 41.9999 19.4003C42.2844 19.6829 42.6205 19.8114 43.0343 19.8114C43.4739 19.8371 43.81 19.6829 44.0686 19.4003Z" fill="white"/>
<path d="M49.4728 15.623C49.809 15.4946 50.1969 15.4175 50.6106 15.4175V16.9078C50.4296 16.8821 50.3003 16.8821 50.2486 16.8821C49.7831 16.8821 49.4211 17.0106 49.1625 17.2676C48.9039 17.5245 48.7746 17.91 48.7746 18.4239V21.0706H47.1455V15.4946H48.6971V16.2398C48.8781 15.9571 49.1367 15.7515 49.4728 15.623Z" fill="white"/>
<path d="M55.3165 20.8136C55.1614 20.9421 54.9545 21.0192 54.7218 21.0706C54.489 21.122 54.2304 21.1477 53.9718 21.1477C53.2995 21.1477 52.7823 20.9678 52.4203 20.6338C52.0583 20.2997 51.8773 19.7858 51.8773 19.1434V16.8565H50.998V15.5974H51.8773V14.2355H53.5064V15.5974H54.9028V16.8565H53.5064V19.1434C53.5064 19.3747 53.5581 19.5545 53.6874 19.683C53.8167 19.8115 53.9718 19.8629 54.2046 19.8629C54.4632 19.8629 54.67 19.7858 54.8511 19.6573L55.3165 20.8136Z" fill="white"/>
<path d="M60.411 16.0083C60.8765 16.4194 61.1092 17.0361 61.1092 17.8841V21.0704H59.5835V20.3766C59.2732 20.8905 58.7043 21.1475 57.8768 21.1475C57.4372 21.1475 57.0752 21.0704 56.7649 20.9419C56.4546 20.7878 56.196 20.6079 56.0408 20.3509C55.8857 20.094 55.7822 19.8113 55.7822 19.4773C55.7822 18.9633 55.9891 18.5522 56.377 18.2439C56.7649 17.9355 57.3855 17.807 58.213 17.807H59.5059C59.5059 17.4473 59.4025 17.1903 59.1698 16.9848C58.9629 16.8049 58.6267 16.7021 58.1871 16.7021C57.8768 16.7021 57.5924 16.7535 57.3079 16.8306C57.0235 16.9334 56.7649 17.0618 56.558 17.216L55.9632 16.0854C56.2735 15.8798 56.6356 15.7 57.0752 15.5972C57.5148 15.4687 57.9544 15.4173 58.394 15.4173C59.2732 15.3916 59.9197 15.5972 60.411 16.0083ZM59.0146 19.8884C59.2215 19.7599 59.3766 19.58 59.4801 19.3231V18.7578H58.3681C57.6958 18.7578 57.3596 18.9633 57.3596 19.4002C57.3596 19.6057 57.4372 19.7599 57.6182 19.8884C57.7734 20.0169 58.0061 20.0683 58.2906 20.0683C58.5492 20.0683 58.7819 20.0169 59.0146 19.8884Z" fill="white"/>
<path d="M62.4795 13.3617H64.1086V21.0705H62.4795V13.3617Z" fill="white"/>
<path d="M65.5833 14.4409C65.4023 14.2611 65.2988 14.0555 65.2988 13.7985C65.2988 13.5416 65.4023 13.336 65.5833 13.1561C65.7643 12.9763 66.0229 12.8992 66.3073 12.8992C66.6177 12.8992 66.8504 12.9763 67.0314 13.1561C67.2124 13.3103 67.3158 13.5416 67.3158 13.7728C67.3158 14.0555 67.2124 14.2611 67.0314 14.4409C66.8504 14.6208 66.5918 14.6979 66.3073 14.6979C66.0229 14.6979 65.7902 14.6208 65.5833 14.4409ZM65.5057 15.4945H67.1348V21.0705H65.5057V15.4945Z" fill="white"/>
<path d="M4.16332 9.17345C4.62879 8.2227 5.2494 7.34904 6.02518 6.60385C7.88704 4.75375 10.3437 3.75161 12.9554 3.75161H20.377V11.1263C20.377 13.7216 19.3685 16.1627 17.5066 18.0128C16.7567 18.758 15.8775 19.3747 14.9207 19.863V21.4818C14.9207 22.3041 14.8431 23.1263 14.688 24C16.7567 23.3576 18.6444 22.227 20.196 20.6852C22.756 18.1413 24.1783 14.7495 24.1783 11.152V0H12.9296C9.30929 0 5.89588 1.41328 3.33583 3.95717C1.78428 5.49893 0.672337 7.34904 0 9.43041C0.879211 9.27623 1.7067 9.19914 2.5342 9.19914L4.16332 9.17345Z" fill="#009B00"/>
<path d="M14.6885 23.9744L16.4986 18.8866C16.3176 19.0408 16.1107 19.1693 15.9039 19.2977C15.9039 19.2977 15.878 19.2977 15.878 19.3234C15.697 19.4262 15.5418 19.529 15.3608 19.6318C15.2832 19.6832 15.2057 19.7089 15.1281 19.7603C15.0505 19.786 14.9988 19.8373 14.9212 19.863V21.4819C14.8954 22.2785 14.8178 23.1007 14.6885 23.9744Z" fill="#077207"/>
<path d="M2.5347 9.17353H4.16383C4.18969 9.12214 4.24141 9.04505 4.26727 8.99366C4.31898 8.86518 4.39656 8.7624 4.47414 8.63392C4.55172 8.50544 4.62929 8.37696 4.70687 8.24848C4.75859 8.17139 4.81031 8.06861 4.88788 7.99152C4.99132 7.83734 5.09476 7.70886 5.19819 7.55469C5.22405 7.52899 5.24991 7.4776 5.27577 7.4519L0.0263672 9.40479C0.905578 9.25062 1.73307 9.17353 2.5347 9.17353Z" fill="#077207"/>
<path d="M11.1199 12.9765V12.9508H11.0938L11.1199 12.9765Z" fill="#FBB03B"/>
<path d="M10.9395 17.8844C10.9912 17.9615 11.0687 18.0386 11.1205 18.09L10.9395 17.8844Z" fill="#FFDF00"/>
<path d="M14.8953 21.4818V19.863V9.17346H4.13793H2.5088C1.68131 9.17346 0.85382 9.25055 -0.0253906 9.40472L1.65545 11.075L3.49145 12.8994L6.46525 12.9508H11.0682H11.1199V12.9765V18.09L11.1458 20.4797L12.9818 22.3041L14.6626 23.9743C14.8178 23.1007 14.8953 22.2784 14.8953 21.4818Z" fill="#FFDF00"/>
</g>
<defs>
<clipPath id="clip0_27871_5836">
<rect width="76" height="24" fill="white"/>
</clipPath>
</defs>
</svg>
