<svg width="33" height="18" viewBox="0 0 33 18" fill="none" xmlns="http://www.w3.org/2000/svg">
<path d="M10.9475 4.31077C6.45652 3.21347 3.31806 5.82105 1.38758 2.889C1.3818 2.87718 1.37603 2.87129 1.37025 2.85949C1.31823 2.7769 1.38758 2.65891 1.48006 2.6825C5.4566 3.65003 6.10395 3.04827 7.77433 3.25475C9.31753 3.44354 10.9475 4.31077 10.9475 4.31077Z" fill="#EFEFEF"/>
<path d="M11.7394 5.04819C7.78589 4.45234 4.98266 7.46698 2.86723 5.14849C2.86145 5.14259 2.85567 5.13079 2.84411 5.12489C2.78631 5.06 2.82677 4.94201 2.91346 4.94791C6.52589 5.21928 7.37552 4.57034 8.86102 4.50544C10.2481 4.44644 11.7394 5.04819 11.7394 5.04819Z" fill="#EFEFEF"/>
<path d="M12.4733 5.99803C9.02272 5.52018 7.54314 8.6823 4.74568 6.74727C4.7399 6.74137 4.73412 6.73548 4.72256 6.72368C4.66477 6.67058 4.68211 6.5172 4.76302 6.5172C7.82057 6.5231 8.61818 5.79745 9.90717 5.63817C11.6527 5.42578 12.4733 5.99803 12.4733 5.99803Z" fill="#EFEFEF"/>
<path d="M14.0281 7.04228C12.2248 7.23696 12.5081 8.71183 10.5314 8.38146C10.2713 8.34016 10.3291 8.15138 10.4447 8.11599C12.1035 7.63222 12.1035 7.30775 12.6988 7.06587C13.2653 6.84759 14.0281 7.04228 14.0281 7.04228Z" fill="#EFEFEF"/>
<path d="M13.2132 6.58798C10.6122 6.64108 9.94759 8.54662 7.757 7.92717C7.42176 7.83277 7.53736 7.57319 7.71654 7.5496C10.225 7.14254 10.3463 6.76497 11.2769 6.54078C12.1496 6.3284 13.2132 6.58798 13.2132 6.58798Z" fill="#EFEFEF"/>
<path d="M11.7277 4.3049C11.7103 4.33439 11.6699 4.34029 11.641 4.32849C11.1035 4.01582 10.6007 3.65004 10.0228 3.24888C9.47939 2.87721 8.31184 2.36985 5.8843 2.48785C4.72833 2.54684 2.97126 2.78873 1.15638 1.52033C0.717103 1.21945 0.272052 0.706197 0.040857 0.228346C0.0177391 0.187043 0.0061803 0.133945 0.000400825 0.0808468C-0.00537865 0.0277487 0.0524157 -0.0135374 0.104447 0.00415668C4.5954 1.8448 5.87852 1.12507 8.70488 1.7917C9.86658 2.06899 11.3058 3.79165 11.722 4.2223C11.7451 4.24001 11.7451 4.27539 11.7277 4.3049Z" fill="#EFEFEF"/>
<path d="M15.635 14.3931C15.5829 14.5581 15.5944 14.7529 15.4905 14.8945C15.3632 15.0833 15.0512 15.101 14.9009 14.9299C14.8027 14.8415 14.8027 14.6999 14.7679 14.5877C14.5426 13.5789 14.3229 12.57 14.1033 11.5553C14.0802 11.4846 14.1033 11.4373 14.1726 11.4079C14.2825 11.3783 14.294 11.5023 14.3286 11.5731C14.5772 12.2634 14.8084 12.9594 15.0627 13.6496C15.1436 13.8857 15.4154 13.8089 15.5944 13.868C15.7852 13.9918 15.6696 14.2219 15.635 14.3931Z" fill="#EFEFEF"/>
<path d="M15.9297 11.6085C15.9529 11.6734 15.9181 11.7501 15.8488 11.7618C15.8084 11.7677 15.7737 11.7618 15.7621 11.7028C15.5944 11.3607 15.4499 11.0008 15.2766 10.6587C15.0512 10.4639 14.8142 10.2634 14.6756 9.98608C14.427 9.53772 14.4501 8.95367 14.7275 8.52301C14.7506 8.4935 14.7679 8.45811 14.7911 8.42861C14.8316 8.36963 14.9183 8.38142 14.9413 8.45222C14.9587 8.50531 14.9702 8.55839 14.9934 8.60559C15.3055 9.60262 15.6061 10.6114 15.9297 11.6085Z" fill="#EFEFEF"/>
<path d="M15.9759 6.85933C15.9644 7.1248 15.8662 7.37259 15.8025 7.62627C15.7967 7.64396 15.791 7.65576 15.7736 7.66165C15.7332 7.67936 15.6928 7.64986 15.6928 7.60857C15.6985 7.26049 15.8199 6.91833 15.7332 6.57615C15.6061 6.11009 15.2939 5.70303 15.2709 5.20747C15.2592 4.94789 15.3228 4.69421 15.3749 4.44053C15.1899 4.04527 15.1032 3.591 15.2014 3.16034C15.2188 3.10725 15.2246 3.10725 15.2535 3.14853C15.4327 3.41402 15.6696 3.6795 15.6696 4.02756C15.6465 4.52312 15.3806 5.01868 15.5598 5.51425C15.7043 5.95671 16.0164 6.36967 15.9759 6.85933Z" fill="#EFEFEF"/>
<path d="M17.5018 5.1485C17.4903 5.79744 16.9354 6.31659 16.999 6.97735C16.999 7.23102 17.0625 7.4906 17.0336 7.74428C16.9932 7.96845 16.7446 8.00386 16.5656 8.05695C16.4615 8.10415 16.3459 7.98026 16.3748 7.87407C16.3748 7.10713 16.3748 6.3343 16.3748 5.56737C16.3863 5.24879 16.4615 4.91251 16.6753 4.67064C16.8083 4.51135 16.9469 4.35207 17.0914 4.19278C17.1203 4.15737 17.1377 4.11609 17.132 4.07478C17.1203 3.9332 17.0914 3.80931 17.155 3.64412C17.2533 3.43764 17.3805 3.31375 17.5133 3.17806C17.5365 3.15447 17.5711 3.16627 17.577 3.19576C17.6695 3.61463 17.577 4.06889 17.3862 4.44646C17.4325 4.67064 17.5018 4.90661 17.5018 5.1485Z" fill="#EFEFEF"/>
<path d="M24.8018 2.77692C24.0157 3.0011 23.6516 3.27247 23.3396 3.52615C23.3396 3.52615 24.0505 3.27247 25.0734 3.16039C27.975 2.83592 28.1425 3.93912 31.3909 2.65893C31.5006 2.64124 31.5295 2.72972 31.5006 2.77692C31.0672 3.54386 30.5874 4.39338 28.7726 4.47007C26.7959 4.55267 25.7671 3.74444 23.9117 3.98632C22.7269 4.1397 22.1142 4.51727 21.7731 4.74736C25.819 3.95682 25.4838 5.77387 29.4487 4.80635C29.495 4.79454 29.5471 4.78275 29.5934 4.78864C29.6973 4.80044 29.7379 4.93024 29.6742 5.00104C29.6453 5.03642 29.6049 5.07183 29.576 5.10722C29.0559 5.67947 28.5067 6.30482 26.6571 6.16323C24.4839 5.99804 24.3453 4.62347 20.1953 5.67357C24.218 5.65588 24.1487 7.00096 27.1774 6.5998C27.2814 6.588 27.3449 6.71779 27.2641 6.78858C27.2178 6.82987 27.1657 6.86527 27.1253 6.90068C26.6688 7.26643 26.004 7.7148 24.7555 7.45522C22.1546 6.90068 22.4842 5.80336 19.1376 6.40512C21.7442 6.47591 21.5651 7.50832 24.2412 7.762C24.2412 7.762 24.2412 7.762 24.2469 7.762C24.3914 7.77969 24.432 7.97437 24.3105 8.05698C24.218 8.12187 24.1139 8.16906 24.0157 8.21036C22.0622 8.98319 21.1547 6.48181 18.7561 7.04226C20.4727 7.19564 20.3339 7.78559 21.883 8.21626C22.0505 8.26346 22.0333 8.49354 21.8483 8.51124C20.0104 8.70002 20.1722 7.43753 19.0451 7.39033C18.7446 7.37853 18.4671 7.54372 18.3168 7.81509C17.8718 8.60562 18.0509 9.35486 18.022 9.76194C18.126 10.1867 18.2822 10.5997 18.2879 11.0479C18.2937 11.3607 18.2648 11.6852 18.1665 11.986C17.9815 12.6113 17.7966 13.2368 17.6059 13.8681C17.5654 13.9978 17.5711 14.1393 17.6174 14.2632C17.6867 14.4521 17.7562 14.635 17.7851 14.8355C17.8544 15.1717 17.8082 15.5198 17.6926 15.8443C17.4499 16.4519 17.207 17.0596 16.9643 17.6732C16.918 17.7852 16.8834 17.9033 16.8024 17.9976C16.6812 18.0213 16.6927 17.862 16.7042 17.7852C16.9412 15.5139 17.1666 13.2426 17.3978 10.9713L17.5828 10.4286C17.2187 10.7471 17.0568 11.1895 16.8198 11.5849C16.7909 11.6792 16.6523 11.6969 16.6234 11.5908C16.6464 11.1955 16.6984 10.8003 16.7101 10.4049C16.7446 10.0038 16.739 9.59674 16.8719 9.21328C17.0221 8.82391 17.3111 8.51124 17.5366 8.17497C17.9064 7.6912 18.1838 7.14254 18.3746 6.56439C18.4902 6.21043 18.733 5.89776 19.0451 5.70308C20.1259 5.00693 20.7558 4.40518 21.7789 3.61465C22.721 2.889 23.4493 2.32265 23.8656 2.15157C25.7671 1.35513 29.5876 2.21057 32.859 0.0395542C32.9398 -0.00764598 33.0439 0.0867385 32.9804 0.222425C32.674 1.01297 32.3099 1.52032 31.4428 1.95689C28.946 3.21349 26.0791 2.41115 24.8018 2.77692Z" fill="#EFEFEF"/>
<path d="M17.2187 4.13969C17.2187 4.13969 17.0047 3.75622 16.4846 3.70902C16.0915 3.67364 15.9125 3.80932 15.9125 3.80932C15.9125 3.80932 16.3863 3.66774 16.7563 4.004C17.1261 4.34027 16.9239 4.62936 16.9239 4.62936C16.9239 4.62936 17.3284 4.38747 17.2187 4.13969Z" fill="#EFEFEF"/>
<path d="M17.1955 4.08656C17.1955 4.08656 16.9239 3.7916 16.369 3.76799C16.369 3.76799 16.6984 3.85058 16.7389 4.03346C16.8083 4.38154 16.5078 4.8476 16.45 5.07179C16.4037 5.27237 17.1955 4.08656 17.1955 4.08656Z" fill="#EFEFEF"/>
</svg>
