<svg width="117" height="40" viewBox="0 0 117 40" fill="none" xmlns="http://www.w3.org/2000/svg">
<path d="M23.3515 16.533L23.3287 17.5626C24.038 17.677 24.816 18.1804 24.816 20.6516V27.3102C24.816 29.9415 22.9626 31.017 21.0176 31.017C18.9583 31.017 17.1964 29.9415 17.1964 27.3102V19.233C17.1964 17.9745 17.9744 17.6313 18.6837 17.5626L18.5922 16.533H11.2243L11.1328 17.5626C11.8421 17.6313 12.6201 17.9745 12.6201 19.233V26.4864C12.6201 30.3992 14.6794 32.9619 19.8507 32.9619C24.816 32.9619 27.0812 30.3992 27.0812 26.4864V20.4228C27.0812 18.2491 27.8592 17.677 28.5685 17.5626V16.533H23.3515Z" fill="#EFEFEF"/>
<path d="M40.0038 28.111C39.6148 30.5822 37.3266 30.9254 34.4893 30.9254H34.1232L40.9419 20.9262V19.5076H29.7757L29.4783 23.5347H30.7139C31.0113 21.4296 33.0478 21.155 34.8325 21.1321H36.0224L29.3638 30.8797V32.55H40.7131L41.2394 28.111H40.0038Z" fill="#EFEFEF"/>
<path d="M50.5643 24.5644C50.5643 21.155 52.3949 17.6999 55.4152 17.6999C56.6966 17.6999 57.4288 18.5923 57.4288 20.1253C57.4288 21.3381 58.3441 21.9559 59.2822 21.9559C60.2432 21.9559 61.2043 21.3152 61.2043 20.0338C61.2043 18.9813 60.6322 18.2262 59.7627 17.5397C58.4585 16.5101 56.4678 16.1211 54.2483 16.1211C49.4432 16.1211 45.5762 19.8965 45.5762 24.6101C45.5762 29.3008 49.4432 32.9619 54.2483 32.9619C57.2229 32.9619 60.1059 31.8178 61.8449 29.5754L60.7466 28.4542C59.6026 29.7127 57.7263 30.3534 55.5754 30.2161C53.3559 30.0559 50.5643 28.2712 50.5643 24.5644Z" fill="#545A5D"/>
<path d="M70.5394 31.5203V32.55H77.9988L77.9301 31.5203C77.2208 31.4059 76.4428 30.9025 76.4428 28.4313V23.9694C76.4428 20.2397 74.1776 19.0957 72.1869 19.0957C70.7682 19.0957 69.2123 19.7592 68.6631 20.9033V14.9312C67.6334 14.4278 63.9724 14.5194 62.6453 16.2584C63.3317 16.6702 64.247 16.9448 64.247 19.3702V28.4313C64.247 30.9025 63.469 31.4059 62.7597 31.5203L62.691 32.55H70.1504V31.5203C69.4411 31.4059 68.6631 30.9025 68.6631 28.4313V25.3881C68.6631 22.894 69.3267 21.0635 70.5851 21.0635C71.0428 21.0635 72.0267 21.5211 72.0267 23.9465V28.4313C72.0267 30.9025 71.2487 31.4059 70.5394 31.5203Z" fill="#545A5D"/>
<path d="M90.8904 29.2551C89.9522 30.3076 88.3963 30.8339 87.1836 30.7424C85.2157 30.6051 83.3395 29.0034 83.2708 26.8525C85.3988 27.2415 87.1607 27.0356 88.4878 26.6237C90.387 26.0288 91.4624 25.0449 91.6683 23.5576C92.0116 21.0406 89.4717 19.0499 85.5132 19.0499C81.5547 19.0499 78.3513 22.1847 78.3513 26.0745C78.3513 29.9644 81.5547 33.0992 85.5132 33.0992C87.9844 33.0992 90.3641 32.0466 91.8056 30.1932L90.8904 29.2551ZM86.5886 20.8804C87.7556 20.766 88.8997 21.7957 88.4878 23.2143C88.0988 24.5415 86.7259 25.8915 83.4081 25.2737C83.7056 23.0771 84.5751 21.0635 86.5886 20.8804Z" fill="#545A5D"/>
<path d="M97.8614 31.2458C96.7402 31.2458 95.5961 30.7652 95.5961 29.8729C95.5961 29.3924 96.3283 29.1178 96.3283 28.5C96.3283 27.7678 95.5961 27.1271 94.5664 27.1271C93.0334 27.1271 92.3698 28.3856 92.3698 29.1864C92.3698 31.4517 94.9325 32.8017 98.2046 32.8017C102.346 32.8017 104.131 30.4678 104.131 28.5457C104.131 27.3788 103.536 26.3949 102.278 25.5483C99.4631 23.6033 96.8317 22.8025 96.8317 21.7728C96.8317 21.0177 97.7012 20.6058 98.6622 20.6058C99.669 20.6058 100.653 20.9948 100.539 21.8414C100.218 24.2669 104.039 24.1982 103.605 21.6584C103.353 20.2855 101.5 19.2787 98.9826 19.2787C96.2597 19.2787 93.6283 20.194 93.0562 22.2762C92.6444 23.6262 93.5825 24.8618 95.1156 25.8457C97.2664 27.1957 100.104 28.294 100.104 29.3924C100.104 30.4678 99.28 31.2458 97.8614 31.2458Z" fill="#545A5D"/>
<path d="M110.199 31.2458C109.077 31.2458 107.933 30.7652 107.933 29.8729C107.933 29.3924 108.666 29.1178 108.666 28.5C108.666 27.7678 107.933 27.1271 106.904 27.1271C105.371 27.1271 104.707 28.3856 104.707 29.1864C104.707 31.4517 107.27 32.8017 110.542 32.8017C114.683 32.8017 116.468 30.4678 116.468 28.5457C116.468 27.3788 115.873 26.3949 114.615 25.5483C111.8 23.6033 109.169 22.8025 109.169 21.7728C109.169 21.0177 110.038 20.6058 110.999 20.6058C112.006 20.6058 112.99 20.9948 112.876 21.8414C112.555 24.2669 116.377 24.1982 115.942 21.6584C115.69 20.2855 113.837 19.2787 111.32 19.2787C108.597 19.2787 105.966 20.194 105.394 22.2762C104.982 23.6262 105.92 24.8618 107.453 25.8457C109.604 27.1957 112.441 28.294 112.441 29.3924C112.441 30.4678 111.617 31.2458 110.199 31.2458Z" fill="#545A5D"/>
<g filter="url(#filter0_i_27850_147080)">
<path d="M5.90963 32.6031C5.29443 32.6031 4.85691 31.9944 5.04344 31.398L6.21795 27.6427C6.59006 26.453 7.28495 25.3943 8.22257 24.5888C8.26547 24.5362 8.30542 24.4795 8.343 24.4194C8.43709 24.2699 8.4507 23.9572 8.35631 23.7941C8.07344 23.3183 7.75032 22.8561 7.40028 22.4075C7.23547 22.208 7.06119 22.0183 6.88513 21.8288C6.70109 21.6309 6.51527 21.4332 6.33625 21.2248C5.98621 20.817 6.02675 20.6675 6.34986 20.246C6.52503 20.0149 6.64605 19.6751 6.64605 19.3896C6.65966 18.4244 6.29601 17.5272 5.91904 16.6572C5.74387 16.2494 6.16138 15.5697 6.60581 15.5697H7.93881L7.9536 15.5425C7.96721 15.5185 7.98319 15.4897 7.99266 15.4609C7.04995 14.7404 6.4981 13.816 6.61912 12.5926C6.68659 11.94 6.87507 11.3283 7.25204 10.7166C7.8311 11.2331 8.36992 11.7225 8.90845 12.2119C9.03361 12.3305 9.12712 12.3709 9.21766 12.3413C9.28305 12.3199 9.34696 12.2622 9.42005 12.1712C9.5819 11.9808 9.55498 11.8857 9.37981 11.7361C8.98361 11.3875 8.60279 11.0311 8.21428 10.6787C8.08764 10.5639 7.96011 10.4495 7.8311 10.3359C7.62901 10.1592 7.61569 10.0233 7.79086 9.83296C8.10037 9.47953 8.38324 9.09889 8.70636 8.74542C8.84099 8.59589 8.90845 8.48715 8.82767 8.26963C8.66611 7.84824 8.80075 7.4676 9.17771 7.19571C9.56829 6.92382 10.1474 6.9374 10.5379 7.22288C10.8747 7.48119 10.9957 7.86182 10.8341 8.28325C10.7533 8.48715 10.8208 8.58231 10.9554 8.71826C11.7499 9.57469 12.45 10.4855 12.8406 11.6138C13.3389 13.0412 13.0021 14.2782 11.8709 15.2842C11.8393 15.3098 11.8106 15.3383 11.7851 15.3769C11.7561 15.4205 11.731 15.4768 11.7094 15.5561H12.7867C13.2717 15.5561 13.635 15.7872 13.8102 16.2494C13.8508 16.3445 13.7969 16.4805 13.7564 16.5892C13.514 17.3505 13.2312 18.1118 13.0427 18.8866C12.908 19.444 12.9483 20.0013 13.4735 20.4228C13.7428 20.6403 13.541 20.9393 13.3794 21.1432C13.2344 21.326 13.0779 21.493 12.9222 21.659C12.7885 21.8019 12.6553 21.944 12.5308 22.0948C12.4515 22.1916 12.371 22.2878 12.2902 22.3842C11.9745 22.7614 11.6573 23.1406 11.3999 23.563C11.1463 23.961 11.1676 24.3259 11.4227 24.5888C12.3538 25.3946 13.0439 26.45 13.4145 27.635L14.5914 31.398C14.778 31.9944 14.3404 32.6031 13.7252 32.6031H5.90963Z" fill="#1C92E0"/>
</g>
<path fill-rule="evenodd" clip-rule="evenodd" d="M13.4114 21.1972C13.2661 21.3803 13.1092 21.5477 12.9532 21.7142L12.9506 21.7169C12.817 21.8596 12.684 22.0017 12.5595 22.1524C12.4799 22.2495 12.3991 22.3461 12.318 22.4428C12.0011 22.8215 11.6827 23.2021 11.4243 23.6261C11.1698 24.0256 11.1912 24.3919 11.4472 24.6558C12.3818 25.4647 13.0746 26.5241 13.4466 27.7137L14.628 31.4909C14.8153 32.0896 14.3761 32.7006 13.7585 32.7006H5.91319C5.29565 32.7006 4.85646 32.0896 5.0437 31.4909L6.22268 27.7214C6.59621 26.5271 7.29374 25.4644 8.23493 24.6558C8.27799 24.6031 8.31809 24.5461 8.35581 24.4858C8.45026 24.3357 8.46393 24.0219 8.36918 23.8581C8.08523 23.3805 7.76088 22.9166 7.40951 22.4662C7.24407 22.266 7.06913 22.0756 6.8924 21.8854C6.87305 21.8646 6.85369 21.8437 6.83431 21.8229C6.66866 21.645 6.50231 21.4663 6.34143 21.2791C5.99006 20.8697 6.03075 20.7196 6.35509 20.2965C6.53093 20.0646 6.65241 19.7234 6.65241 19.4369C6.66607 18.468 6.30104 17.5674 5.92263 16.6941C5.76559 16.3284 6.08311 15.7451 6.4706 15.6246C6.51697 15.6102 6.56434 15.6024 6.61202 15.6024H7.95008L7.96494 15.5751C7.9786 15.551 7.99464 15.5221 8.00414 15.4932C7.98598 15.4793 7.96796 15.4654 7.95008 15.4513C7.57216 15.1546 7.25976 14.8238 7.03182 14.4527C6.70895 13.9269 6.55554 13.3201 6.62538 12.614C6.65279 12.3489 6.7001 12.0905 6.77179 11.8361C6.83594 11.6085 6.91962 11.384 7.02604 11.1608C7.09455 11.0172 7.17249 10.874 7.2607 10.7308C7.30666 10.7718 7.35236 10.8127 7.39783 10.8533C7.39838 10.8538 7.39894 10.8543 7.3995 10.8548C7.52613 10.9681 7.65096 11.0801 7.77442 11.1913C7.77435 11.1912 7.77448 11.1913 7.77442 11.1913C7.89558 11.3003 8.01561 11.4087 8.13453 11.5162C8.22915 11.6018 8.3232 11.687 8.41686 11.7719C8.43327 11.6959 8.45674 11.6319 8.47947 11.5825C8.50318 11.531 8.52617 11.4948 8.53953 11.4752C8.54022 11.4742 8.54089 11.4732 8.54155 11.4723C8.54358 11.4693 8.54548 11.4666 8.54723 11.4642C8.55148 11.4598 8.55693 11.4544 8.56356 11.4482C8.56971 11.4424 8.57688 11.4359 8.58504 11.4289C8.6258 11.3941 8.71827 11.3233 8.86206 11.2737C8.77996 11.1988 8.69809 11.1237 8.61621 11.0487C8.48663 10.9299 8.35705 10.8111 8.22661 10.6928C8.09948 10.5776 7.97147 10.4627 7.84197 10.3488C7.78839 10.3019 7.74802 10.2579 7.72088 10.215C7.64525 10.0955 7.67218 9.98446 7.80158 9.84388C7.82963 9.81184 7.85747 9.77957 7.88515 9.74713C7.99196 9.62188 8.09627 9.49391 8.2009 9.36554C8.36931 9.15894 8.53857 8.95128 8.72055 8.7522C8.85569 8.6021 8.92341 8.49295 8.84233 8.2746C8.68016 7.85161 8.8153 7.46952 9.1937 7.19659C9.58577 6.92366 10.167 6.9373 10.5591 7.22386C10.8971 7.48316 11.0186 7.86524 10.8564 8.28827C10.7753 8.49295 10.843 8.58847 10.9782 8.72493C11.7757 9.58462 12.4784 10.4989 12.8705 11.6315C13.2343 12.6736 13.1547 13.6147 12.6473 14.439C12.4571 14.748 12.2068 15.0405 11.8972 15.3159C11.8654 15.3415 11.8366 15.3702 11.811 15.4089C11.7819 15.4527 11.7567 15.5092 11.735 15.5887H12.8164C12.9498 15.5887 13.0739 15.6061 13.1876 15.641C13.4889 15.7332 13.7162 15.9478 13.8438 16.2847C13.883 16.3766 13.8345 16.5063 13.7945 16.6132C13.7929 16.6175 13.7913 16.6217 13.7898 16.6258C13.7191 16.848 13.6449 17.0701 13.5707 17.2925C13.3894 17.8354 13.2076 18.3803 13.0734 18.932C12.9382 19.4915 12.9786 20.0509 13.5058 20.474C13.7761 20.6923 13.5735 20.9925 13.4114 21.1972ZM14.1908 19.2028C14.1476 19.3819 14.156 19.4709 14.1629 19.5017C14.1655 19.5132 14.1679 19.5177 14.1704 19.5216C14.1731 19.5259 14.186 19.5456 14.2254 19.5772L14.2283 19.5796C14.4593 19.7661 14.6517 20.0262 14.7391 20.3551C14.8231 20.6714 14.7846 20.9556 14.725 21.1612C14.6198 21.5236 14.3976 21.8039 14.3156 21.9073L14.312 21.9119C14.137 22.1324 13.9526 22.3292 13.8034 22.4883L13.7917 22.5008C13.7916 22.5009 13.7918 22.5007 13.7917 22.5008C13.654 22.6479 13.5453 22.7645 13.4473 22.883C13.3638 22.9848 13.2801 23.085 13.1995 23.1811C12.9245 23.5097 12.6955 23.7858 12.5069 24.0671C13.4492 24.9756 14.1503 26.1119 14.544 27.3705L15.7253 31.1477C16.1359 32.4604 15.1792 33.8503 13.7585 33.8503H5.91319C4.49247 33.8503 3.53579 32.4604 3.94637 31.1477L5.12535 27.3782C5.51786 26.1232 6.21672 24.9902 7.15576 24.0841C6.95962 23.7826 6.74434 23.4834 6.51316 23.1865C6.37386 23.0187 6.22236 22.8534 6.05043 22.6683M12.3782 24.2718C12.3782 24.2718 12.3784 24.2714 12.3788 24.2705L12.3782 24.2718ZM14.1908 19.2028C14.3131 18.7001 14.4713 18.2264 14.6453 17.7056C14.7198 17.4824 14.7972 17.2506 14.8759 17.0042C14.8959 16.9514 14.9401 16.8305 14.9687 16.704C14.9986 16.5717 15.0619 16.2357 14.9136 15.8631C14.7516 15.4432 14.4791 15.0691 14.0845 14.806C14.003 14.7518 13.9195 14.7043 13.8345 14.6631C13.9482 14.4287 14.0402 14.1837 14.1083 13.9281C14.3411 13.0536 14.2684 12.1482 13.9565 11.254C13.5317 10.0276 12.8126 9.04826 12.0583 8.20344C12.0953 7.93226 12.08 7.65206 11.9997 7.37491C11.8699 6.92639 11.5942 6.56883 11.2589 6.31161L11.2483 6.30349L11.2376 6.29562C10.4638 5.73007 9.34622 5.68951 8.53681 6.25296L8.52892 6.25846L8.52112 6.26409C8.17881 6.51098 7.87663 6.85931 7.72451 7.31586C7.62262 7.62161 7.6028 7.93217 7.6478 8.23079C7.54757 8.34825 7.45319 8.46325 7.36523 8.57103C7.34625 8.59427 7.32763 8.61711 7.3093 8.63959C7.20921 8.76236 7.11794 8.87431 7.02695 8.98153L7.00191 8.95918L6.89164 9.13813C6.80988 9.23611 6.71064 9.37533 6.63667 9.55189L6.28187 10.1277C5.80569 10.9004 5.56578 11.6827 5.48172 12.4957L5.48121 12.5008C5.40094 13.3123 5.54036 14.0265 5.83301 14.6488C5.46585 14.8446 5.20645 15.1496 5.05904 15.3854C4.81995 15.7681 4.56847 16.4547 4.86621 17.1478L4.86764 17.1511C5.25316 18.0409 5.51251 18.7299 5.50277 19.4206L5.50265 19.4288V19.4336C5.50248 19.4354 5.50192 19.4406 5.50036 19.4489C5.49747 19.4645 5.49226 19.4851 5.48406 19.5086C5.47589 19.532 5.46635 19.5537 5.45681 19.572C5.44818 19.5885 5.44169 19.598 5.43944 19.6012C5.43454 19.6075 5.42929 19.6143 5.42374 19.6215C5.28866 19.7962 4.97196 20.2058 4.94643 20.7378C4.91611 21.3697 5.28882 21.818 5.46896 22.0279C5.64578 22.2337 5.82866 22.4301 5.99251 22.6061C6.01198 22.627 6.03152 22.648 6.05043 22.6683M9.39657 11.7543C9.5724 11.9044 9.59943 11.9999 9.43696 12.191C9.3636 12.2824 9.29944 12.3403 9.2338 12.3617C9.15203 12.3885 9.06786 12.3583 8.9603 12.2654C8.95778 12.2632 8.95524 12.261 8.95269 12.2587C8.94312 12.2503 8.93337 12.2413 8.92341 12.2319" fill="#172329"/>
<g filter="url(#filter1_di_27850_147080)">
<path d="M5.91309 32.7004C5.29555 32.7004 4.85636 32.0894 5.04361 31.4908L6.22259 27.7212C6.59611 26.527 7.29364 25.4643 8.23483 24.6557C8.2779 24.6029 8.31799 24.5459 8.35571 24.4857C8.45017 24.3356 8.46383 24.0217 8.36908 23.858C8.08513 23.3804 7.76079 22.9164 7.40941 22.4661C7.24397 22.2659 7.06903 22.0754 6.8923 21.8852C6.70756 21.6865 6.52103 21.4881 6.34133 21.2789C5.98996 20.8695 6.03065 20.7194 6.355 20.2964C6.53083 20.0644 6.65231 19.7233 6.65231 19.4367C6.66597 18.4679 6.30094 17.5673 5.92254 16.6939C5.7467 16.2846 6.1658 15.6023 6.61192 15.6023H7.94999L7.96484 15.575C7.9785 15.5509 7.99454 15.522 8.00404 15.4931C7.05774 14.7699 6.5038 13.842 6.62528 12.6139C6.693 11.9588 6.8822 11.3448 7.26061 10.7307C7.84187 11.2492 8.38274 11.7405 8.92332 12.2318C9.04896 12.3507 9.14281 12.3913 9.2337 12.3616C9.29934 12.3402 9.3635 12.2822 9.43686 12.1908C9.59933 11.9998 9.5723 11.9043 9.39647 11.7542C8.99876 11.4042 8.6165 11.0465 8.22651 10.6927C8.09939 10.5774 7.97137 10.4626 7.84187 10.3486C7.63901 10.1712 7.62564 10.0348 7.80148 9.84374C8.11216 9.48896 8.39611 9.10688 8.72045 8.75206C8.8556 8.60196 8.92332 8.49281 8.84223 8.27446C8.68006 7.85147 8.8152 7.46938 9.1936 7.19645C9.58567 6.92353 10.1669 6.93716 10.559 7.22372C10.897 7.48302 11.0185 7.8651 10.8563 8.28813C10.7752 8.49281 10.8429 8.58833 10.9781 8.72479C11.7756 9.58448 12.4783 10.4988 12.8704 11.6313C13.3706 13.0641 13.0326 14.3059 11.8971 15.3157C11.8653 15.3414 11.8365 15.37 11.8109 15.4088C11.7818 15.4525 11.7566 15.5091 11.7349 15.5886H12.8163C13.3032 15.5886 13.6679 15.8206 13.8437 16.2846C13.8844 16.3801 13.8304 16.5165 13.7897 16.6257C13.5464 17.3899 13.2625 18.154 13.0733 18.9318C12.9381 19.4913 12.9785 20.0508 13.5057 20.4738C13.776 20.6922 13.5734 20.9924 13.4113 21.197C13.2657 21.3805 13.1086 21.5481 12.9524 21.7148C12.8181 21.8582 12.6845 22.0008 12.5594 22.1523C12.4798 22.2494 12.399 22.346 12.3179 22.4427C12.001 22.8214 11.6826 23.202 11.4242 23.626C11.1697 24.0255 11.1911 24.3918 11.4471 24.6557C12.3817 25.4645 13.0745 26.524 13.4465 27.7135L14.6279 31.4908C14.8152 32.0894 14.376 32.7004 13.7584 32.7004H5.91309Z" fill="#1C92E0"/>
</g>
<defs>
<filter id="filter0_i_27850_147080" x="5" y="7" width="9.63477" height="25.603" filterUnits="userSpaceOnUse" color-interpolation-filters="sRGB">
<feFlood flood-opacity="0" result="BackgroundImageFix"/>
<feBlend mode="normal" in="SourceGraphic" in2="BackgroundImageFix" result="shape"/>
<feColorMatrix in="SourceAlpha" type="matrix" values="0 0 0 0 0 0 0 0 0 0 0 0 0 0 0 0 0 0 127 0" result="hardAlpha"/>
<feOffset dx="-1.5"/>
<feComposite in2="hardAlpha" operator="arithmetic" k2="-1" k3="1"/>
<feColorMatrix type="matrix" values="0 0 0 0 0 0 0 0 0 0 0 0 0 0 0 0 0 0 0.18 0"/>
<feBlend mode="normal" in2="shape" result="effect1_innerShadow_27850_147080"/>
</filter>
<filter id="filter1_di_27850_147080" x="0" y="0" width="23.6719" height="39.7004" filterUnits="userSpaceOnUse" color-interpolation-filters="sRGB">
<feFlood flood-opacity="0" result="BackgroundImageFix"/>
<feColorMatrix in="SourceAlpha" type="matrix" values="0 0 0 0 0 0 0 0 0 0 0 0 0 0 0 0 0 0 127 0" result="hardAlpha"/>
<feOffset dx="2"/>
<feGaussianBlur stdDeviation="3.5"/>
<feComposite in2="hardAlpha" operator="out"/>
<feColorMatrix type="matrix" values="0 0 0 0 0.0431373 0 0 0 0 0.0784314 0 0 0 0 0.0941176 0 0 0 0.5 0"/>
<feBlend mode="normal" in2="BackgroundImageFix" result="effect1_dropShadow_27850_147080"/>
<feBlend mode="normal" in="SourceGraphic" in2="effect1_dropShadow_27850_147080" result="shape"/>
<feColorMatrix in="SourceAlpha" type="matrix" values="0 0 0 0 0 0 0 0 0 0 0 0 0 0 0 0 0 0 127 0" result="hardAlpha"/>
<feOffset dx="-1.5"/>
<feComposite in2="hardAlpha" operator="arithmetic" k2="-1" k3="1"/>
<feColorMatrix type="matrix" values="0 0 0 0 0 0 0 0 0 0 0 0 0 0 0 0 0 0 0.18 0"/>
<feBlend mode="normal" in2="shape" result="effect2_innerShadow_27850_147080"/>
</filter>
</defs>
</svg>
