<svg width="12" height="12" viewBox="0 0 12 12" fill="none" xmlns="http://www.w3.org/2000/svg">
<path d="M11.5 1.5H9.5V7.5H11.5V1.5ZM0.499999 7C0.499999 7.5525 0.947498 8 1.5 8H4.6575L4.18 10.285C4.17 10.335 4.1625 10.3875 4.1625 10.4425C4.1625 10.65 4.2475 10.8375 4.3825 10.9725L4.915 11.5L8.2075 8.2075C8.3875 8.025 8.5 7.775 8.5 7.5V2.5C8.5 1.9475 8.0525 1.5 7.5 1.5H3C2.585 1.5 2.23 1.7525 2.08 2.11L0.572499 5.635C0.527499 5.75 0.499999 5.8725 0.499999 6V6.9575L0.504999 6.9625L0.499999 7Z" fill="#DC2D2D"/>
</svg>
