<svg width="42" height="42" viewBox="0 0 42 42" fill="none" xmlns="http://www.w3.org/2000/svg">
<path d="M25.0647 27.65C24.5025 27.65 23.9633 27.8713 23.5658 28.2651C23.1682 28.659 22.9449 29.1931 22.9449 29.75C22.9449 30.307 23.1682 30.8411 23.5658 31.235C23.9633 31.6288 24.5025 31.85 25.0647 31.85C25.6269 31.85 26.1661 31.6288 26.5637 31.235C26.9612 30.8411 27.1846 30.307 27.1846 29.75C27.1846 29.1931 26.9612 28.659 26.5637 28.2651C26.1661 27.8713 25.6269 27.65 25.0647 27.65ZM11.6391 22.05C10.5147 22.05 9.43628 22.4925 8.64119 23.2802C7.84609 24.0679 7.39941 25.1361 7.39941 26.25C7.39941 27.364 7.84609 28.4322 8.64119 29.2199C9.43628 30.0076 10.5147 30.45 11.6391 30.45C12.7635 30.45 13.8419 30.0076 14.637 29.2199C15.4321 28.4322 15.8788 27.364 15.8788 26.25C15.8788 25.1361 15.4321 24.0679 14.637 23.2802C13.8419 22.4925 12.7635 22.05 11.6391 22.05ZM25.0647 34.65C24.5025 34.65 23.9633 34.8713 23.5658 35.2651C23.1682 35.659 22.9449 36.1931 22.9449 36.75C22.9449 37.307 23.1682 37.8411 23.5658 38.235C23.9633 38.6288 24.5025 38.85 25.0647 38.85C25.6269 38.85 26.1661 38.6288 26.5637 38.235C26.9612 37.8411 27.1846 37.307 27.1846 36.75C27.1846 36.1931 26.9612 35.659 26.5637 35.2651C26.1661 34.8713 25.6269 34.65 25.0647 34.65ZM37.7837 27.65C37.2215 27.65 36.6823 27.8713 36.2848 28.2651C35.8872 28.659 35.6639 29.1931 35.6639 29.75C35.6639 30.307 35.8872 30.8411 36.2848 31.235C36.6823 31.6288 37.2215 31.85 37.7837 31.85C38.346 31.85 38.8851 31.6288 39.2827 31.235C39.6802 30.8411 39.9036 30.307 39.9036 29.75C39.9036 29.1931 39.6802 28.659 39.2827 28.2651C38.8851 27.8713 38.346 27.65 37.7837 27.65Z" fill="#1C92E0"/>
<path d="M2.09961 36.05L9.12475 33.4824C9.82854 33.18 10.6256 33.1702 11.3364 33.4586L24.1445 38.6428C24.1445 38.6428 26.0891 38.5868 26.1174 38.5728L38.8166 31.584L36.8833 27.8488L27.1843 31.85H25.0645L25.7202 27.7522L13.4365 22.4448L10.066 22.3496L2.09961 24.85V36.05Z" fill="#1C92E0"/>
<path d="M17.7475 11.2391H17.2963C17.1048 11.2391 16.9212 11.3152 16.7858 11.4505C16.6505 11.5859 16.5744 11.7695 16.5744 11.961V12.6829C16.5744 12.8743 16.6505 13.0579 16.7858 13.1933C16.9212 13.3287 17.1048 13.4047 17.2963 13.4047H18.0155C18.0092 15.3517 17.7677 17.2907 17.2963 19.1797H23.0713C22.5999 17.2907 22.3584 15.3517 22.3521 13.4047H23.0713C23.2627 13.4047 23.4464 13.3287 23.5817 13.1933C23.7171 13.0579 23.7932 12.8743 23.7932 12.6829V11.961C23.7932 11.7695 23.7171 11.5859 23.5817 11.4505C23.4464 11.3152 23.2627 11.2391 23.0713 11.2391H22.6201L24.1491 7.16142C24.1901 7.05213 24.204 6.93453 24.1896 6.8187C24.1752 6.70287 24.1329 6.59227 24.0664 6.49636C23.9998 6.40046 23.911 6.32212 23.8076 6.26807C23.7041 6.21401 23.5891 6.18584 23.4724 6.18599H20.9057V4.74224H21.9885C22.0842 4.74224 22.176 4.70421 22.2437 4.63652C22.3114 4.56883 22.3494 4.47703 22.3494 4.3813V3.65942C22.3494 3.5637 22.3114 3.47189 22.2437 3.4042C22.176 3.33651 22.0842 3.29849 21.9885 3.29849H20.9057V2.21567C20.9057 2.11995 20.8676 2.02814 20.7999 1.96045C20.7323 1.89276 20.6405 1.85474 20.5447 1.85474H19.8229C19.7271 1.85474 19.6353 1.89276 19.5676 1.96045C19.4999 2.02814 19.4619 2.11995 19.4619 2.21567V3.29849H18.3791C18.2834 3.29849 18.1916 3.33651 18.1239 3.4042C18.0562 3.47189 18.0182 3.5637 18.0182 3.65942V4.3813C18.0182 4.47703 18.0562 4.56883 18.1239 4.63652C18.1916 4.70421 18.2834 4.74224 18.3791 4.74224H19.4619V6.18599H16.8943C16.7776 6.18584 16.6626 6.21401 16.5591 6.26807C16.4556 6.32212 16.3668 6.40046 16.3003 6.49636C16.2338 6.59227 16.1915 6.70287 16.1771 6.8187C16.1627 6.93453 16.1765 7.05213 16.2175 7.16142L17.7475 11.2391ZM29.7455 15.4711L29.597 19.1797H35.3143L35.1659 15.4707L36.2757 14.5327C36.4361 14.397 36.5649 14.2279 36.6532 14.0373C36.7415 13.8467 36.7871 13.6392 36.7869 13.4291V10.7879C36.7869 10.7161 36.7584 10.6473 36.7076 10.5965C36.6569 10.5458 36.588 10.5172 36.5162 10.5172H35.326C35.2542 10.5172 35.1854 10.5458 35.1346 10.5965C35.0838 10.6473 35.0553 10.7161 35.0553 10.7879V11.961H33.9405V10.7879C33.9405 10.7161 33.9119 10.6473 33.8612 10.5965C33.8104 10.5458 33.7416 10.5172 33.6698 10.5172H31.242C31.1702 10.5172 31.1014 10.5458 31.0506 10.5965C30.9998 10.6473 30.9713 10.7161 30.9713 10.7879V11.961H29.8565V10.7879C29.8565 10.7161 29.8279 10.6473 29.7772 10.5965C29.7264 10.5458 29.6576 10.5172 29.5858 10.5172H28.3951C28.3233 10.5172 28.2545 10.5458 28.2037 10.5965C28.1529 10.6473 28.1244 10.7161 28.1244 10.7879V13.4318C28.1248 13.6415 28.1708 13.8486 28.2593 14.0387C28.3478 14.2289 28.4767 14.3974 28.6369 14.5327L29.7455 15.4711ZM31.7338 15.5704C31.7338 15.3789 31.8098 15.1953 31.9452 15.0599C32.0806 14.9245 32.2642 14.8485 32.4557 14.8485C32.6471 14.8485 32.8307 14.9245 32.9661 15.0599C33.1015 15.1953 33.1775 15.3789 33.1775 15.5704V17.0141H31.7338V15.5704ZM37.11 22.5897L36.065 22.0672V21.3454C36.065 21.1539 35.989 20.9703 35.8536 20.8349C35.7182 20.6995 35.5346 20.6235 35.3432 20.6235H29.5682C29.3767 20.6235 29.1931 20.6995 29.0577 20.8349C28.9223 20.9703 28.8463 21.1539 28.8463 21.3454V22.0672L27.8018 22.5897C27.6819 22.6496 27.581 22.7417 27.5105 22.8558C27.4399 22.9698 27.4026 23.1012 27.4025 23.2353V24.2329C27.4025 24.4243 27.4786 24.6079 27.614 24.7433C27.7493 24.8787 27.933 24.9547 28.1244 24.9547H36.7869C36.9784 24.9547 37.162 24.8787 37.2974 24.7433C37.4327 24.6079 37.5088 24.4243 37.5088 24.2329V23.2353C37.5088 23.1013 37.4715 22.9699 37.4011 22.8559C37.3306 22.7418 37.2298 22.6497 37.11 22.5897Z" fill="#1C92E0"/>
<path d="M24.515 22.0672L25.56 22.5897C25.6798 22.6497 25.7806 22.7418 25.8511 22.8559C25.9215 22.9699 25.9588 23.1013 25.9588 23.2353V24.2329C25.9588 24.4243 25.8827 24.6079 25.7474 24.7433C25.612 24.8787 25.4284 24.9547 25.2369 24.9547H22.7764C22.4967 24.9547 22.22 24.8961 21.9644 24.7825L16.4465 22.3311C16.0853 22.1707 15.8525 21.8125 15.8525 21.4173V21.3454C15.8525 21.1539 15.9286 20.9703 16.064 20.8349C16.1993 20.6995 16.383 20.6235 16.5744 20.6235H23.7932C23.9846 20.6235 24.1682 20.6995 24.3036 20.8349C24.439 20.9703 24.515 21.1539 24.515 21.3454V22.0672Z" fill="#1C92E0"/>
</svg>
