<svg width="20" height="20" viewBox="0 0 20 20" fill="none" xmlns="http://www.w3.org/2000/svg">
<path fill-rule="evenodd" clip-rule="evenodd" d="M6.66699 1.66663C3.90557 1.66663 1.66699 3.9052 1.66699 6.66663V13.3333C1.66699 16.0947 3.90557 18.3333 6.66699 18.3333H13.3337C16.0951 18.3333 18.3337 16.0947 18.3337 13.3333V6.66663C18.3337 3.9052 16.0951 1.66663 13.3337 1.66663H6.66699ZM15.0003 5.83329C15.4606 5.83329 15.8337 5.4602 15.8337 4.99996C15.8337 4.53972 15.4606 4.16663 15.0003 4.16663C14.5401 4.16663 14.167 4.53972 14.167 4.99996C14.167 5.4602 14.5401 5.83329 15.0003 5.83329ZM14.167 9.99996C14.167 12.3011 12.3015 14.1666 10.0003 14.1666C7.69914 14.1666 5.83366 12.3011 5.83366 9.99996C5.83366 7.69877 7.69914 5.83329 10.0003 5.83329C12.3015 5.83329 14.167 7.69877 14.167 9.99996ZM10.0003 12.5C11.381 12.5 12.5003 11.3807 12.5003 9.99996C12.5003 8.61925 11.381 7.49996 10.0003 7.49996C8.61961 7.49996 7.50033 8.61925 7.50033 9.99996C7.50033 11.3807 8.61961 12.5 10.0003 12.5Z" fill="#F7F9FA" fill-opacity="0.75"/>
</svg>
