<svg width="676" height="327" viewBox="0 0 676 327" fill="none" xmlns="http://www.w3.org/2000/svg">
<rect width="676" height="327" rx="8" fill="#1A1D1F"/>
<path d="M362.753 219.288C413.392 219.288 454.653 178.198 454.653 127.729C454.483 77.0907 413.392 36 362.753 36C311.944 36 270.854 77.0907 270.854 127.559C270.854 178.198 311.944 219.288 362.753 219.288Z" fill="#17191B" stroke="#181A1D" stroke-width="2" stroke-miterlimit="10"/>
<path d="M460.108 139.323C460.108 158.93 444.252 174.787 424.474 174.787C424.133 174.787 421.234 174.787 399.921 174.787C385.088 174.787 361.388 174.787 323.537 174.787H305.464C281.764 175.298 262.839 156.373 262.839 133.526C262.839 110.508 281.935 91.4121 305.976 92.6056C326.606 28.1563 421.064 37.1928 429.077 103.859C446.809 106.075 460.108 121.079 460.108 139.323Z" fill="#757778" stroke="#3A3E42" stroke-width="2" stroke-miterlimit="10"/>
<path d="M428.566 104.03C427.202 103.86 425.838 103.86 424.474 103.86C417.483 103.86 410.834 105.906 405.207 109.486" fill="#252729"/>
<path d="M428.566 104.03C427.202 103.86 425.838 103.86 424.474 103.86C417.483 103.86 410.834 105.906 405.207 109.486" stroke="#3A3E42" stroke-width="2" stroke-miterlimit="10" stroke-linecap="round"/>
<path d="M306.5 93C303.833 99.075 302.5 105.487 302.5 112.237C302.5 114.937 302.722 117.469 303.167 120" fill="#75777C"/>
<path d="M306.5 93C303.833 99.075 302.5 105.487 302.5 112.237C302.5 114.937 302.722 117.469 303.167 120" stroke="#3A3E42" stroke-width="2" stroke-miterlimit="10" stroke-linecap="round" stroke-linejoin="round"/>
<path d="M344.186 132.649C346.871 132.649 349.143 130.377 349.143 127.692C349.143 125.008 346.871 122.736 344.186 122.736C341.501 122.736 339.229 125.008 339.229 127.692C339.229 130.377 341.501 132.649 344.186 132.649Z" fill="#111315"/>
<path d="M382.186 132.649C384.871 132.649 387.143 130.377 387.143 127.692C387.143 125.008 384.871 122.736 382.186 122.736C379.501 122.736 377.229 125.008 377.229 127.692C377.229 130.584 379.501 132.649 382.186 132.649Z" fill="#111315"/>
<path d="M343.992 111.295L333.089 117.182L334.561 119.908L345.464 114.021L343.992 111.295Z" fill="#111315"/>
<path d="M381.512 111.216L380.04 113.942L390.944 119.828L392.416 117.102L381.512 111.216Z" fill="#111315"/>
<path d="M363.186 144.215C366.38 144.215 368.969 142.273 368.969 139.878C368.969 137.483 366.38 135.541 363.186 135.541C359.992 135.541 357.403 137.483 357.403 139.878C357.403 142.273 359.992 144.215 363.186 144.215Z" fill="#111315"/>
<path d="M241.654 60.4854C241.654 60.4854 217.82 66.5366 225.043 71.3776C232.265 75.9766 249.358 83.9642 265.487 78.6391C281.617 73.314 265.487 65.8105 265.728 65.8105C265.969 65.8105 241.654 60.4854 241.654 60.4854Z" fill="#252729" stroke="#3A3E42" stroke-width="2" stroke-miterlimit="10"/>
<path d="M212.523 58.5489C221.19 61.2114 247.913 56.8545 265.005 45.7202C278.487 62.4217 283.543 66.7786 288.357 67.2627C280.894 74.7662 256.098 86.8687 242.135 71.1355C225.764 81.5436 212.523 58.5489 212.523 58.5489Z" fill="#252729" stroke="#3A3E42" stroke-width="2" stroke-miterlimit="10"/>
<path d="M434.293 119.071C443.441 119.555 468.238 108.421 481.719 93.4136C499.053 106.242 504.831 109.147 509.886 108.421C504.349 117.619 487.497 137.709 463.664 139.161C446.33 128.995 434.293 119.071 434.293 119.071Z" fill="#252729" stroke="#3A3E42" stroke-width="2" stroke-miterlimit="10"/>
<path d="M361.265 232.609C359.455 223.628 342.495 202.387 324.602 193.069C332.709 173.086 334.083 166.767 332.12 162.051C342.407 165.123 366.062 176.439 373.405 199.16C367.877 218.479 361.265 232.609 361.265 232.609Z" fill="#252729" stroke="#3A3E42" stroke-width="2" stroke-miterlimit="10"/>
<path d="M135.772 267.344V287H130.984V278.908H123.536V287H118.748V267.344H123.536V275.044H130.984V267.344H135.772ZM153.956 278.936C153.956 279.384 153.928 279.851 153.872 280.336H143.036C143.111 281.307 143.419 282.053 143.96 282.576C144.52 283.08 145.202 283.332 146.004 283.332C147.199 283.332 148.03 282.828 148.496 281.82H153.592C153.331 282.847 152.855 283.771 152.164 284.592C151.492 285.413 150.643 286.057 149.616 286.524C148.59 286.991 147.442 287.224 146.172 287.224C144.642 287.224 143.279 286.897 142.084 286.244C140.89 285.591 139.956 284.657 139.284 283.444C138.612 282.231 138.276 280.812 138.276 279.188C138.276 277.564 138.603 276.145 139.256 274.932C139.928 273.719 140.862 272.785 142.056 272.132C143.251 271.479 144.623 271.152 146.172 271.152C147.684 271.152 149.028 271.469 150.204 272.104C151.38 272.739 152.295 273.644 152.948 274.82C153.62 275.996 153.956 277.368 153.956 278.936ZM149.056 277.676C149.056 276.855 148.776 276.201 148.216 275.716C147.656 275.231 146.956 274.988 146.116 274.988C145.314 274.988 144.632 275.221 144.072 275.688C143.531 276.155 143.195 276.817 143.064 277.676H149.056ZM155.53 279.188C155.53 277.564 155.857 276.145 156.51 274.932C157.182 273.719 158.106 272.785 159.282 272.132C160.477 271.479 161.839 271.152 163.37 271.152C165.33 271.152 166.963 271.665 168.27 272.692C169.595 273.719 170.463 275.165 170.874 277.032H165.778C165.349 275.837 164.518 275.24 163.286 275.24C162.409 275.24 161.709 275.585 161.186 276.276C160.663 276.948 160.402 277.919 160.402 279.188C160.402 280.457 160.663 281.437 161.186 282.128C161.709 282.8 162.409 283.136 163.286 283.136C164.518 283.136 165.349 282.539 165.778 281.344H170.874C170.463 283.173 169.595 284.611 168.27 285.656C166.945 286.701 165.311 287.224 163.37 287.224C161.839 287.224 160.477 286.897 159.282 286.244C158.106 285.591 157.182 284.657 156.51 283.444C155.857 282.231 155.53 280.812 155.53 279.188ZM183.039 271.208C184.831 271.208 186.269 271.805 187.351 273C188.434 274.176 188.975 275.8 188.975 277.872V287H184.215V278.516C184.215 277.471 183.945 276.659 183.403 276.08C182.862 275.501 182.134 275.212 181.219 275.212C180.305 275.212 179.577 275.501 179.035 276.08C178.494 276.659 178.223 277.471 178.223 278.516V287H173.435V266.28H178.223V273.476C178.709 272.785 179.371 272.235 180.211 271.824C181.051 271.413 181.994 271.208 183.039 271.208ZM197.284 279.216C197.284 277.667 197.601 276.285 198.236 275.072C198.889 273.859 199.757 272.916 200.84 272.244C201.941 271.553 203.136 271.208 204.424 271.208C205.413 271.208 206.3 271.385 207.084 271.74C207.868 272.076 208.503 272.552 208.988 273.168V271.376H213.776V294.448H208.988V285.04C208.447 285.693 207.784 286.216 207 286.608C206.235 287 205.357 287.196 204.368 287.196C203.099 287.196 201.923 286.86 200.84 286.188C199.757 285.516 198.889 284.573 198.236 283.36C197.601 282.147 197.284 280.765 197.284 279.216ZM208.988 279.188C208.988 278.348 208.82 277.648 208.484 277.088C208.167 276.509 207.747 276.08 207.224 275.8C206.701 275.501 206.151 275.352 205.572 275.352C205.012 275.352 204.471 275.501 203.948 275.8C203.425 276.08 202.996 276.509 202.66 277.088C202.324 277.667 202.156 278.376 202.156 279.216C202.156 280.056 202.324 280.765 202.66 281.344C202.996 281.904 203.425 282.333 203.948 282.632C204.471 282.912 205.012 283.052 205.572 283.052C206.132 283.052 206.673 282.912 207.196 282.632C207.737 282.333 208.167 281.895 208.484 281.316C208.82 280.737 208.988 280.028 208.988 279.188ZM216.288 279.16C216.288 277.555 216.587 276.145 217.184 274.932C217.8 273.719 218.631 272.785 219.676 272.132C220.721 271.479 221.888 271.152 223.176 271.152C224.277 271.152 225.239 271.376 226.06 271.824C226.9 272.272 227.544 272.86 227.992 273.588V271.376H232.78V287H227.992V284.788C227.525 285.516 226.872 286.104 226.032 286.552C225.211 287 224.249 287.224 223.148 287.224C221.879 287.224 220.721 286.897 219.676 286.244C218.631 285.572 217.8 284.629 217.184 283.416C216.587 282.184 216.288 280.765 216.288 279.16ZM227.992 279.188C227.992 277.993 227.656 277.051 226.984 276.36C226.331 275.669 225.528 275.324 224.576 275.324C223.624 275.324 222.812 275.669 222.14 276.36C221.487 277.032 221.16 277.965 221.16 279.16C221.16 280.355 221.487 281.307 222.14 282.016C222.812 282.707 223.624 283.052 224.576 283.052C225.528 283.052 226.331 282.707 226.984 282.016C227.656 281.325 227.992 280.383 227.992 279.188ZM245.764 271.208C247.593 271.208 249.049 271.805 250.132 273C251.233 274.176 251.784 275.8 251.784 277.872V287H247.024V278.516C247.024 277.471 246.753 276.659 246.212 276.08C245.67 275.501 244.942 275.212 244.028 275.212C243.113 275.212 242.385 275.501 241.844 276.08C241.302 276.659 241.032 277.471 241.032 278.516V287H236.244V271.376H241.032V273.448C241.517 272.757 242.17 272.216 242.992 271.824C243.813 271.413 244.737 271.208 245.764 271.208ZM254.159 279.16C254.159 277.555 254.458 276.145 255.055 274.932C255.671 273.719 256.502 272.785 257.547 272.132C258.592 271.479 259.759 271.152 261.047 271.152C262.074 271.152 263.007 271.367 263.847 271.796C264.706 272.225 265.378 272.804 265.863 273.532V266.28H270.651V287H265.863V284.76C265.415 285.507 264.771 286.104 263.931 286.552C263.11 287 262.148 287.224 261.047 287.224C259.759 287.224 258.592 286.897 257.547 286.244C256.502 285.572 255.671 284.629 255.055 283.416C254.458 282.184 254.159 280.765 254.159 279.16ZM265.863 279.188C265.863 277.993 265.527 277.051 264.855 276.36C264.202 275.669 263.399 275.324 262.447 275.324C261.495 275.324 260.683 275.669 260.011 276.36C259.358 277.032 259.031 277.965 259.031 279.16C259.031 280.355 259.358 281.307 260.011 282.016C260.683 282.707 261.495 283.052 262.447 283.052C263.399 283.052 264.202 282.707 264.855 282.016C265.527 281.325 265.863 280.383 265.863 279.188ZM273.163 279.16C273.163 277.555 273.462 276.145 274.059 274.932C274.675 273.719 275.506 272.785 276.551 272.132C277.596 271.479 278.763 271.152 280.051 271.152C281.152 271.152 282.114 271.376 282.935 271.824C283.775 272.272 284.419 272.86 284.867 273.588V271.376H289.655V287H284.867V284.788C284.4 285.516 283.747 286.104 282.907 286.552C282.086 287 281.124 287.224 280.023 287.224C278.754 287.224 277.596 286.897 276.551 286.244C275.506 285.572 274.675 284.629 274.059 283.416C273.462 282.184 273.163 280.765 273.163 279.16ZM284.867 279.188C284.867 277.993 284.531 277.051 283.859 276.36C283.206 275.669 282.403 275.324 281.451 275.324C280.499 275.324 279.687 275.669 279.015 276.36C278.362 277.032 278.035 277.965 278.035 279.16C278.035 280.355 278.362 281.307 279.015 282.016C279.687 282.707 280.499 283.052 281.451 283.052C282.403 283.052 283.206 282.707 283.859 282.016C284.531 281.325 284.867 280.383 284.867 279.188ZM309.079 271.376L299.279 294.42H294.127L297.711 286.468L291.355 271.376H296.703L300.315 281.148L303.899 271.376H309.079ZM336.68 271.208C338.621 271.208 340.161 271.796 341.3 272.972C342.457 274.148 343.036 275.781 343.036 277.872V287H338.276V278.516C338.276 277.508 338.005 276.733 337.464 276.192C336.941 275.632 336.213 275.352 335.28 275.352C334.346 275.352 333.609 275.632 333.068 276.192C332.545 276.733 332.284 277.508 332.284 278.516V287H327.524V278.516C327.524 277.508 327.253 276.733 326.712 276.192C326.189 275.632 325.461 275.352 324.528 275.352C323.594 275.352 322.857 275.632 322.316 276.192C321.793 276.733 321.532 277.508 321.532 278.516V287H316.744V271.376H321.532V273.336C322.017 272.683 322.652 272.169 323.436 271.796C324.22 271.404 325.106 271.208 326.096 271.208C327.272 271.208 328.317 271.46 329.232 271.964C330.165 272.468 330.893 273.187 331.416 274.12C331.957 273.261 332.694 272.561 333.628 272.02C334.561 271.479 335.578 271.208 336.68 271.208ZM345.432 279.16C345.432 277.555 345.731 276.145 346.328 274.932C346.944 273.719 347.775 272.785 348.82 272.132C349.866 271.479 351.032 271.152 352.32 271.152C353.422 271.152 354.383 271.376 355.204 271.824C356.044 272.272 356.688 272.86 357.136 273.588V271.376H361.924V287H357.136V284.788C356.67 285.516 356.016 286.104 355.176 286.552C354.355 287 353.394 287.224 352.292 287.224C351.023 287.224 349.866 286.897 348.82 286.244C347.775 285.572 346.944 284.629 346.328 283.416C345.731 282.184 345.432 280.765 345.432 279.16ZM357.136 279.188C357.136 277.993 356.8 277.051 356.128 276.36C355.475 275.669 354.672 275.324 353.72 275.324C352.768 275.324 351.956 275.669 351.284 276.36C350.631 277.032 350.304 277.965 350.304 279.16C350.304 280.355 350.631 281.307 351.284 282.016C351.956 282.707 352.768 283.052 353.72 283.052C354.672 283.052 355.475 282.707 356.128 282.016C356.8 281.325 357.136 280.383 357.136 279.188ZM366.48 267.344H371.38L368.244 274.848H365.024L366.48 267.344ZM378.981 266.28V287H374.193V266.28H378.981ZM397.879 271.376V287H393.091V284.872C392.606 285.563 391.943 286.123 391.103 286.552C390.282 286.963 389.367 287.168 388.359 287.168C387.164 287.168 386.11 286.907 385.195 286.384C384.28 285.843 383.571 285.068 383.067 284.06C382.563 283.052 382.311 281.867 382.311 280.504V271.376H387.071V279.86C387.071 280.905 387.342 281.717 387.883 282.296C388.424 282.875 389.152 283.164 390.067 283.164C391 283.164 391.738 282.875 392.279 282.296C392.82 281.717 393.091 280.905 393.091 279.86V271.376H397.879ZM421.254 271.208C423.195 271.208 424.735 271.796 425.874 272.972C427.031 274.148 427.61 275.781 427.61 277.872V287H422.85V278.516C422.85 277.508 422.579 276.733 422.038 276.192C421.515 275.632 420.787 275.352 419.854 275.352C418.921 275.352 418.183 275.632 417.642 276.192C417.119 276.733 416.858 277.508 416.858 278.516V287H412.098V278.516C412.098 277.508 411.827 276.733 411.286 276.192C410.763 275.632 410.035 275.352 409.102 275.352C408.169 275.352 407.431 275.632 406.89 276.192C406.367 276.733 406.106 277.508 406.106 278.516V287H401.318V271.376H406.106V273.336C406.591 272.683 407.226 272.169 408.01 271.796C408.794 271.404 409.681 271.208 410.67 271.208C411.846 271.208 412.891 271.46 413.806 271.964C414.739 272.468 415.467 273.187 415.99 274.12C416.531 273.261 417.269 272.561 418.202 272.02C419.135 271.479 420.153 271.208 421.254 271.208ZM438.071 287.224C436.54 287.224 435.159 286.897 433.927 286.244C432.713 285.591 431.752 284.657 431.043 283.444C430.352 282.231 430.007 280.812 430.007 279.188C430.007 277.583 430.361 276.173 431.071 274.96C431.78 273.728 432.751 272.785 433.983 272.132C435.215 271.479 436.596 271.152 438.127 271.152C439.657 271.152 441.039 271.479 442.271 272.132C443.503 272.785 444.473 273.728 445.183 274.96C445.892 276.173 446.247 277.583 446.247 279.188C446.247 280.793 445.883 282.212 445.155 283.444C444.445 284.657 443.465 285.591 442.215 286.244C440.983 286.897 439.601 287.224 438.071 287.224ZM438.071 283.08C438.985 283.08 439.76 282.744 440.395 282.072C441.048 281.4 441.375 280.439 441.375 279.188C441.375 277.937 441.057 276.976 440.423 276.304C439.807 275.632 439.041 275.296 438.127 275.296C437.193 275.296 436.419 275.632 435.803 276.304C435.187 276.957 434.879 277.919 434.879 279.188C434.879 280.439 435.177 281.4 435.775 282.072C436.391 282.744 437.156 283.08 438.071 283.08ZM457.495 282.94V287H455.059C453.323 287 451.969 286.58 450.999 285.74C450.028 284.881 449.543 283.491 449.543 281.568V275.352H447.639V271.376H449.543V267.568H454.331V271.376H457.467V275.352H454.331V281.624C454.331 282.091 454.443 282.427 454.667 282.632C454.891 282.837 455.264 282.94 455.787 282.94H457.495ZM474.803 282.94V287H472.367C470.631 287 469.278 286.58 468.307 285.74C467.337 284.881 466.851 283.491 466.851 281.568V275.352H464.947V271.376H466.851V267.568H471.639V271.376H474.775V275.352H471.639V281.624C471.639 282.091 471.751 282.427 471.975 282.632C472.199 282.837 472.573 282.94 473.095 282.94H474.803ZM484.582 287.224C483.052 287.224 481.67 286.897 480.438 286.244C479.225 285.591 478.264 284.657 477.554 283.444C476.864 282.231 476.518 280.812 476.518 279.188C476.518 277.583 476.873 276.173 477.582 274.96C478.292 273.728 479.262 272.785 480.494 272.132C481.726 271.479 483.108 271.152 484.638 271.152C486.169 271.152 487.55 271.479 488.782 272.132C490.014 272.785 490.985 273.728 491.694 274.96C492.404 276.173 492.758 277.583 492.758 279.188C492.758 280.793 492.394 282.212 491.666 283.444C490.957 284.657 489.977 285.591 488.726 286.244C487.494 286.897 486.113 287.224 484.582 287.224ZM484.582 283.08C485.497 283.08 486.272 282.744 486.906 282.072C487.56 281.4 487.886 280.439 487.886 279.188C487.886 277.937 487.569 276.976 486.934 276.304C486.318 275.632 485.553 275.296 484.638 275.296C483.705 275.296 482.93 275.632 482.314 276.304C481.698 276.957 481.39 277.919 481.39 279.188C481.39 280.439 481.689 281.4 482.286 282.072C482.902 282.744 483.668 283.08 484.582 283.08ZM500.087 273.588C500.553 272.86 501.197 272.272 502.019 271.824C502.84 271.376 503.801 271.152 504.903 271.152C506.191 271.152 507.357 271.479 508.403 272.132C509.448 272.785 510.269 273.719 510.867 274.932C511.483 276.145 511.791 277.555 511.791 279.16C511.791 280.765 511.483 282.184 510.867 283.416C510.269 284.629 509.448 285.572 508.403 286.244C507.357 286.897 506.191 287.224 504.903 287.224C503.82 287.224 502.859 287 502.019 286.552C501.197 286.104 500.553 285.525 500.087 284.816V294.448H495.299V271.376H500.087V273.588ZM506.919 279.16C506.919 277.965 506.583 277.032 505.911 276.36C505.257 275.669 504.445 275.324 503.475 275.324C502.523 275.324 501.711 275.669 501.039 276.36C500.385 277.051 500.059 277.993 500.059 279.188C500.059 280.383 500.385 281.325 501.039 282.016C501.711 282.707 502.523 283.052 503.475 283.052C504.427 283.052 505.239 282.707 505.911 282.016C506.583 281.307 506.919 280.355 506.919 279.16ZM516.71 269.752C515.87 269.752 515.18 269.509 514.638 269.024C514.116 268.52 513.854 267.904 513.854 267.176C513.854 266.429 514.116 265.813 514.638 265.328C515.18 264.824 515.87 264.572 516.71 264.572C517.532 264.572 518.204 264.824 518.726 265.328C519.268 265.813 519.538 266.429 519.538 267.176C519.538 267.904 519.268 268.52 518.726 269.024C518.204 269.509 517.532 269.752 516.71 269.752ZM519.09 271.376V287H514.302V271.376H519.09ZM527.348 266.28V287H522.56V266.28H527.348ZM550.754 271.208C552.695 271.208 554.235 271.796 555.374 272.972C556.531 274.148 557.11 275.781 557.11 277.872V287H552.35V278.516C552.35 277.508 552.079 276.733 551.538 276.192C551.015 275.632 550.287 275.352 549.354 275.352C548.421 275.352 547.683 275.632 547.142 276.192C546.619 276.733 546.358 277.508 546.358 278.516V287H541.598V278.516C541.598 277.508 541.327 276.733 540.786 276.192C540.263 275.632 539.535 275.352 538.602 275.352C537.669 275.352 536.931 275.632 536.39 276.192C535.867 276.733 535.606 277.508 535.606 278.516V287H530.818V271.376H535.606V273.336C536.091 272.683 536.726 272.169 537.51 271.796C538.294 271.404 539.181 271.208 540.17 271.208C541.346 271.208 542.391 271.46 543.306 271.964C544.239 272.468 544.967 273.187 545.49 274.12C546.031 273.261 546.769 272.561 547.702 272.02C548.635 271.479 549.653 271.208 550.754 271.208ZM559.507 279.16C559.507 277.555 559.805 276.145 560.403 274.932C561.019 273.719 561.849 272.785 562.895 272.132C563.94 271.479 565.107 271.152 566.395 271.152C567.496 271.152 568.457 271.376 569.279 271.824C570.119 272.272 570.763 272.86 571.211 273.588V271.376H575.999V287H571.211V284.788C570.744 285.516 570.091 286.104 569.251 286.552C568.429 287 567.468 287.224 566.367 287.224C565.097 287.224 563.94 286.897 562.895 286.244C561.849 285.572 561.019 284.629 560.403 283.416C559.805 282.184 559.507 280.765 559.507 279.16ZM571.211 279.188C571.211 277.993 570.875 277.051 570.203 276.36C569.549 275.669 568.747 275.324 567.795 275.324C566.843 275.324 566.031 275.669 565.359 276.36C564.705 277.032 564.379 277.965 564.379 279.16C564.379 280.355 564.705 281.307 565.359 282.016C566.031 282.707 566.843 283.052 567.795 283.052C568.747 283.052 569.549 282.707 570.203 282.016C570.875 281.325 571.211 280.383 571.211 279.188ZM578.511 279.16C578.511 277.555 578.809 276.145 579.407 274.932C580.023 273.719 580.853 272.785 581.899 272.132C582.944 271.479 584.111 271.152 585.399 271.152C586.425 271.152 587.359 271.367 588.199 271.796C589.057 272.225 589.729 272.804 590.215 273.532V266.28H595.003V287H590.215V284.76C589.767 285.507 589.123 286.104 588.283 286.552C587.461 287 586.5 287.224 585.399 287.224C584.111 287.224 582.944 286.897 581.899 286.244C580.853 285.572 580.023 284.629 579.407 283.416C578.809 282.184 578.511 280.765 578.511 279.16ZM590.215 279.188C590.215 277.993 589.879 277.051 589.207 276.36C588.553 275.669 587.751 275.324 586.799 275.324C585.847 275.324 585.035 275.669 584.363 276.36C583.709 277.032 583.383 277.965 583.383 279.16C583.383 280.355 583.709 281.307 584.363 282.016C585.035 282.707 585.847 283.052 586.799 283.052C587.751 283.052 588.553 282.707 589.207 282.016C589.879 281.325 590.215 280.383 590.215 279.188ZM600.874 269.752C600.034 269.752 599.344 269.509 598.802 269.024C598.28 268.52 598.018 267.904 598.018 267.176C598.018 266.429 598.28 265.813 598.802 265.328C599.344 264.824 600.034 264.572 600.874 264.572C601.696 264.572 602.368 264.824 602.89 265.328C603.432 265.813 603.702 266.429 603.702 267.176C603.702 267.904 603.432 268.52 602.89 269.024C602.368 269.509 601.696 269.752 600.874 269.752ZM603.254 271.376V287H598.466V271.376H603.254Z" fill="#F7F9FA"/>
</svg>
