<svg width="20" height="20" viewBox="0 0 20 20" fill="none" xmlns="http://www.w3.org/2000/svg">
<path d="M12.7386 3.33337C10.9854 3.33337 9.56413 4.82576 9.56413 6.66671C9.56413 6.94489 9.59658 7.21512 9.65773 7.47344C7.97196 7.47344 5.43282 7.13261 3.31224 5.00805C3.03025 4.72553 2.51027 4.91442 2.52983 5.3131C2.8441 11.7189 5.58751 13.5875 7.00029 13.7037C6.088 14.6048 4.76279 15.316 3.42928 15.6352C3.07734 15.7194 2.9904 16.1047 3.33454 16.2166C4.28873 16.527 5.65451 16.6465 6.38966 16.6667C11.5904 16.6667 15.8174 12.2893 15.9115 6.85195C16.5943 6.40791 17.0316 5.44379 17.2774 4.7608C17.3372 4.59446 17.0646 4.40065 16.9014 4.46859C16.3914 4.68094 15.7438 4.73128 15.1922 4.55155C14.61 3.80776 13.7271 3.33337 12.7386 3.33337Z" fill="#F7F9FA" fill-opacity="0.75"/>
</svg>
