<svg width="24" height="24" viewBox="0 0 24 24" fill="none" xmlns="http://www.w3.org/2000/svg">
<path d="M12.05 21C11.4672 21 11.0066 20.5367 10.5294 20.2021C6.36243 17.28 2.25545 13.5893 2.35 8.2C2.25 5.4 4.65 3 7.45 3C9.75 3 11.25 4.4 12.05 5.4C12.75 4.4 14.25 3 16.55 3C19.35 3 21.75 5.4 21.75 8.3C21.8337 12.985 15.5481 18.5799 13.4919 20.2831C13.0686 20.6337 12.5996 21 12.05 21ZM7.45 4.5C5.45 4.5 3.75 6.2 3.75 8.3C3.75 13.2 7.85 16.7 11.95 19.5C16.55 16.1906 20.2559 11.6803 20.2559 8.3C20.2559 6.2 18.55 4.5 16.55 4.5C14.05 4.5 12.65 7.1 12.65 7.1C12.55 7.3 12.25 7.5 11.95 7.5C11.4055 7.5 11.1331 6.84525 10.8076 6.40875C10.2332 5.63851 9.10433 4.5 7.45 4.5Z" fill="#F7F9FA"/>
</svg>
